<svg width="26" height="26" viewBox="0 0 26 26" fill="none" xmlns="http://www.w3.org/2000/svg">
<g clip-path="url(#clip0_164_1350)">
<mask id="path-1-inside-1_164_1350" fill="white">
<path d="M14.9104 13.0045L25.6874 4.02368C25.9004 3.81644 26.0117 3.54986 25.999 3.27721C25.9864 3.00456 25.8508 2.74592 25.6192 2.55299C25.3877 2.36005 25.0774 2.24702 24.7502 2.23649C24.423 2.22596 24.1031 2.3187 23.8544 2.49618L13.0774 11.477L2.30041 2.48535C2.05561 2.28135 1.7236 2.16675 1.37741 2.16675C1.03121 2.16675 0.699201 2.28135 0.454406 2.48535C0.209612 2.68934 0.0720873 2.96602 0.0720873 3.25451C0.0720873 3.54301 0.209612 3.81969 0.454406 4.02368L11.2444 13.0045L0.454406 21.9854C0.31832 22.0825 0.207794 22.202 0.129764 22.3364C0.0517333 22.4708 0.00788409 22.6172 0.000968748 22.7664C-0.00594659 22.9156 0.0242205 23.0643 0.0895774 23.2034C0.154934 23.3424 0.25407 23.4686 0.380761 23.5742C0.507452 23.6798 0.658964 23.7624 0.825786 23.8169C0.992609 23.8713 1.17114 23.8965 1.35018 23.8907C1.52921 23.885 1.70488 23.8484 1.86617 23.7834C2.02745 23.7184 2.17086 23.6263 2.28741 23.5129L13.0774 14.532L23.8544 23.5129C24.1031 23.6903 24.423 23.7831 24.7502 23.7725C25.0774 23.762 25.3877 23.649 25.6192 23.456C25.8508 23.2631 25.9864 23.0045 25.999 22.7318C26.0117 22.4592 25.9004 22.1926 25.6874 21.9854L14.9104 13.0045Z"/>
</mask>
<path d="M14.9104 13.0045L25.6874 4.02368C25.9004 3.81644 26.0117 3.54986 25.999 3.27721C25.9864 3.00456 25.8508 2.74592 25.6192 2.55299C25.3877 2.36005 25.0774 2.24702 24.7502 2.23649C24.423 2.22596 24.1031 2.3187 23.8544 2.49618L13.0774 11.477L2.30041 2.48535C2.05561 2.28135 1.7236 2.16675 1.37741 2.16675C1.03121 2.16675 0.699201 2.28135 0.454406 2.48535C0.209612 2.68934 0.0720873 2.96602 0.0720873 3.25451C0.0720873 3.54301 0.209612 3.81969 0.454406 4.02368L11.2444 13.0045L0.454406 21.9854C0.31832 22.0825 0.207794 22.202 0.129764 22.3364C0.0517333 22.4708 0.00788409 22.6172 0.000968748 22.7664C-0.00594659 22.9156 0.0242205 23.0643 0.0895774 23.2034C0.154934 23.3424 0.25407 23.4686 0.380761 23.5742C0.507452 23.6798 0.658964 23.7624 0.825786 23.8169C0.992609 23.8713 1.17114 23.8965 1.35018 23.8907C1.52921 23.885 1.70488 23.8484 1.86617 23.7834C2.02745 23.7184 2.17086 23.6263 2.28741 23.5129L13.0774 14.532L23.8544 23.5129C24.1031 23.6903 24.423 23.7831 24.7502 23.7725C25.0774 23.762 25.3877 23.649 25.6192 23.456C25.8508 23.2631 25.9864 23.0045 25.999 22.7318C26.0117 22.4592 25.9004 22.1926 25.6874 21.9854L14.9104 13.0045Z" fill="#393939"/>
<path d="M14.9104 13.0045L6.35022 2.7323L-5.97643 13.0045L6.35022 23.2767L14.9104 13.0045ZM25.6874 4.02368L34.2476 14.2959L34.6434 13.9661L35.0126 13.6068L25.6874 4.02368ZM23.8544 2.49618L16.087 -8.38788L15.6792 -8.09681L15.2942 -7.77603L23.8544 2.49618ZM13.0774 11.477L4.51113 21.7442L13.0722 28.887L21.6376 21.7492L13.0774 11.477ZM2.30041 2.48535L10.8667 -7.78179L10.8606 -7.78687L2.30041 2.48535ZM0.454406 4.02368L-8.10578 14.2959L-8.09968 14.301L0.454406 4.02368ZM11.2444 13.0045L19.7985 23.2818L32.1461 13.0045L19.7985 2.72723L11.2444 13.0045ZM0.454406 21.9854L8.2218 32.8694L8.62643 32.5806L9.0085 32.2626L0.454406 21.9854ZM2.28741 23.5129L-6.26668 13.2356L-6.66572 13.5677L-7.03781 13.9298L2.28741 23.5129ZM13.0774 14.532L21.6376 4.2598L13.0826 -2.86939L4.52331 4.25473L13.0774 14.532ZM23.8544 23.5129L15.2942 33.7851L15.6792 34.1058L16.087 34.3969L23.8544 23.5129ZM25.6874 21.9854L35.0126 12.4023L34.6434 12.043L34.2476 11.7131L25.6874 21.9854ZM23.4706 23.2767L34.2476 14.2959L17.1272 -6.24853L6.35022 2.7323L23.4706 23.2767ZM35.0126 13.6068C37.6935 10.998 39.5628 7.11678 39.3561 2.65809L12.6419 3.89632C12.4606 -0.0170674 14.1072 -3.36512 16.3622 -5.5594L35.0126 13.6068ZM39.3561 2.65809C39.1506 -1.77646 36.9592 -5.40274 34.1794 -7.71923L17.0591 12.8252C14.7423 10.8946 12.8222 7.78558 12.6419 3.89632L39.3561 2.65809ZM34.1794 -7.71923C31.4567 -9.98813 28.2132 -11.0304 25.1804 -11.128L24.32 15.601C21.9415 15.5244 19.3187 14.7082 17.0591 12.8252L34.1794 -7.71923ZM25.1804 -11.128C22.1456 -11.2257 18.8978 -10.3938 16.087 -8.38788L31.6218 13.3802C29.3084 15.0312 26.7004 15.6776 24.32 15.601L25.1804 -11.128ZM15.2942 -7.77603L4.51722 1.2048L21.6376 21.7492L32.4146 12.7684L15.2942 -7.77603ZM21.6437 1.20988L10.8667 -7.78179L-6.26586 12.7525L4.51113 21.7442L21.6437 1.20988ZM10.8606 -7.78687C7.99884 -10.1717 4.56144 -11.2047 1.37741 -11.2047V15.5382C-1.11424 15.5382 -3.88761 14.7344 -6.25978 12.7576L10.8606 -7.78687ZM1.37741 -11.2047C-1.80662 -11.2047 -5.24402 -10.1717 -8.10577 -7.78687L9.01459 12.7576C6.64243 14.7344 3.86905 15.5382 1.37741 15.5382V-11.2047ZM-8.10577 -7.78687C-11.0387 -5.3428 -13.2993 -1.44888 -13.2993 3.25451H13.4435C13.4435 7.38092 11.4579 10.7215 9.01459 12.7576L-8.10577 -7.78687ZM-13.2993 3.25451C-13.2993 7.95791 -11.0387 11.8518 -8.10577 14.2959L9.01459 -6.24853C11.4579 -4.21246 13.4435 -0.871893 13.4435 3.25451H-13.2993ZM-8.09968 14.301L2.69032 23.2818L19.7985 2.72723L9.0085 -6.25361L-8.09968 14.301ZM2.69032 2.72723L-8.09968 11.7081L9.0085 32.2626L19.7985 23.2818L2.69032 2.72723ZM-7.31299 11.1013C-8.87766 12.2179 -10.3307 13.7222 -11.4341 15.6228L11.6936 29.05C10.7463 30.6817 9.5143 31.947 8.2218 32.8694L-7.31299 11.1013ZM-11.4341 15.6228C-12.5455 17.5372 -13.2456 19.7638 -13.3561 22.1473L13.3581 23.3855C13.2614 25.4706 12.649 27.4044 11.6936 29.05L-11.4341 15.6228ZM-13.3561 22.1473C-13.4667 24.5335 -12.975 26.8424 -12.0113 28.8923L12.1904 17.5144C13.0234 19.2863 13.4548 21.2977 13.3581 23.3855L-13.3561 22.1473ZM-12.0113 28.8923C-11.0546 30.9272 -9.69462 32.5838 -8.17942 33.8464L8.94094 13.302C10.2028 14.3535 11.3645 15.7576 12.1904 17.5144L-12.0113 28.8923ZM-8.17942 33.8464C-6.66864 35.1054 -4.99783 35.9816 -3.32414 36.528L4.97571 11.1057C6.31576 11.5432 7.68355 12.2542 8.94094 13.302L-8.17942 33.8464ZM-3.32414 36.528C-1.64932 37.0748 0.0810282 37.3099 1.78035 37.2552L0.919998 10.5262C2.26125 10.483 3.63454 10.6679 4.97571 11.1057L-3.32414 36.528ZM1.78035 37.2552C3.47938 37.2005 5.206 36.8541 6.86608 36.1848L-3.13375 11.3819C-1.79623 10.8427 -0.420961 10.5694 0.919998 10.5262L1.78035 37.2552ZM6.86608 36.1848C8.52543 35.5158 10.1666 34.5031 11.6126 33.0959L-7.03781 13.9298C-5.82484 12.7494 -4.47053 11.9209 -3.13375 11.3819L6.86608 36.1848ZM10.8415 33.7901L21.6315 24.8093L4.52331 4.25473L-6.26668 13.2356L10.8415 33.7901ZM4.51722 24.8042L15.2942 33.7851L32.4146 13.2406L21.6376 4.2598L4.51722 24.8042ZM16.087 34.3969C18.8979 36.4029 22.1457 37.2347 25.1804 37.137L24.32 10.408C26.7003 10.3314 29.3083 10.9778 31.6218 12.6288L16.087 34.3969ZM25.1804 37.137C28.2131 37.0394 31.4567 35.9972 34.1794 33.7283L17.0591 13.1838C19.3187 11.3008 21.9416 10.4846 24.32 10.408L25.1804 37.137ZM34.1794 33.7283C36.9592 31.4118 39.1506 27.7855 39.3561 23.3509L12.6419 22.1127C12.8222 18.2235 14.7423 15.1145 17.0591 13.1838L34.1794 33.7283ZM39.3561 23.3509C39.5628 18.8922 37.6935 15.011 35.0126 12.4023L16.3622 31.5684C14.1072 29.3742 12.4606 26.0261 12.6419 22.1127L39.3561 23.3509ZM34.2476 11.7131L23.4706 2.7323L6.35022 23.2767L17.1272 32.2576L34.2476 11.7131Z" fill="#393939" mask="url(#path-1-inside-1_164_1350)"/>
</g>
<defs>
<clipPath id="clip0_164_1350">
<rect width="26" height="26" fill="white"/>
</clipPath>
</defs>
</svg>
