<svg width="54" height="54" viewBox="0 0 54 54" fill="none" xmlns="http://www.w3.org/2000/svg">
<path d="M28.0833 22.6667C28.9453 22.6667 29.7719 23.0091 30.3814 23.6186C30.9909 24.2281 31.3333 25.0547 31.3333 25.9167C31.3333 26.204 31.4475 26.4795 31.6506 26.6827C31.8538 26.8859 32.1293 27 32.4167 27C32.704 27 32.9795 26.8859 33.1827 26.6827C33.3859 26.4795 33.5 26.204 33.5 25.9167C33.5 24.4801 32.9293 23.1023 31.9135 22.0865C30.8977 21.0707 29.5199 20.5 28.0833 20.5C27.796 20.5 27.5205 20.6141 27.3173 20.8173C27.1141 21.0205 27 21.296 27 21.5833C27 21.8707 27.1141 22.1462 27.3173 22.3494C27.5205 22.5525 27.796 22.6667 28.0833 22.6667Z" fill="url(#paint0_linear_367_21085)"/>
<path d="M28.0833 18.3337C30.0946 18.3337 32.0234 19.1326 33.4456 20.5548C34.8677 21.9769 35.6667 23.9058 35.6667 25.917C35.6667 26.2043 35.7808 26.4799 35.984 26.683C36.1871 26.8862 36.4627 27.0003 36.75 27.0003C37.0373 27.0003 37.3129 26.8862 37.516 26.683C37.7192 26.4799 37.8333 26.2043 37.8333 25.917C37.8333 23.3311 36.8061 20.8512 34.9776 19.0227C33.1491 17.1942 30.6692 16.167 28.0833 16.167C27.796 16.167 27.5205 16.2811 27.3173 16.4843C27.1141 16.6875 27 16.963 27 17.2503C27 17.5376 27.1141 17.8132 27.3173 18.0164C27.5205 18.2195 27.796 18.3337 28.0833 18.3337Z" fill="url(#paint1_linear_367_21085)"/>
<path d="M37.5638 31.2362C37.5042 31.0622 37.4014 30.9064 37.2649 30.7832C37.1284 30.66 36.9629 30.5735 36.7838 30.532L30.2838 29.0478C30.1074 29.0078 29.9237 29.0126 29.7496 29.0618C29.5755 29.111 29.4165 29.2031 29.2871 29.3295C29.1355 29.4703 29.1246 29.4812 28.4205 30.8245C26.0839 29.7478 24.2117 27.8679 23.1446 25.527C24.5205 24.8337 24.5313 24.8337 24.6721 24.6712C24.7986 24.5418 24.8906 24.3828 24.9398 24.2087C24.989 24.0346 24.9938 23.8509 24.9538 23.6745L23.4696 17.2503C23.4281 17.0712 23.3416 16.9057 23.2185 16.7692C23.0953 16.6328 22.9394 16.5299 22.7655 16.4703C22.5125 16.38 22.2512 16.3147 21.9855 16.2753C21.7117 16.2118 21.4322 16.1755 21.1513 16.167C19.8296 16.167 18.5621 16.692 17.6276 17.6266C16.693 18.5611 16.168 19.8287 16.168 21.1503C16.1737 25.5733 17.9332 29.8134 21.0607 32.9409C24.1882 36.0684 28.4284 37.8279 32.8513 37.8337C33.5057 37.8337 34.1537 37.7048 34.7583 37.4543C35.3629 37.2039 35.9123 36.8368 36.375 36.3741C36.8378 35.9113 37.2049 35.362 37.4553 34.7574C37.7057 34.1528 37.8346 33.5047 37.8346 32.8503C37.835 32.5746 37.8132 32.2993 37.7696 32.027C37.7241 31.7579 37.6552 31.4933 37.5638 31.2362Z" fill="url(#paint2_linear_367_21085)"/>
<rect x="0.5" y="0.5" width="53" height="53" rx="26.5" stroke="#E1E1E1"/>
<defs>
<linearGradient id="paint0_linear_367_21085" x1="27.0495" y1="23.75" x2="33.5495" y2="23.75" gradientUnits="userSpaceOnUse">
<stop stop-color="#FBB34C"/>
<stop offset="1" stop-color="#F56B18"/>
</linearGradient>
<linearGradient id="paint1_linear_367_21085" x1="27.0826" y1="21.5837" x2="37.9159" y2="21.5837" gradientUnits="userSpaceOnUse">
<stop stop-color="#FBB34C"/>
<stop offset="1" stop-color="#F56B18"/>
</linearGradient>
<linearGradient id="paint2_linear_367_21085" x1="16.3331" y1="27.0003" x2="37.9998" y2="27.0003" gradientUnits="userSpaceOnUse">
<stop stop-color="#FBB34C"/>
<stop offset="1" stop-color="#F56B18"/>
</linearGradient>
</defs>
</svg>
