<svg width="40" height="40" viewBox="0 0 40 40" fill="none" xmlns="http://www.w3.org/2000/svg">
<path d="M20 0C8.95312 0 0 8.95312 0 20C0 31.0469 8.95312 40 20 40C31.0469 40 40 31.0469 40 20C40 8.95312 31.0469 0 20 0ZM17.5 14.9297V24.9297C17.5 26.3828 16.3828 27.5 15 27.5C13.6172 27.5 12.5 26.3828 12.5 25V14.9297C12.5 13.6172 13.6172 12.5 14.9297 12.5C16.2422 12.5 17.5 13.6172 17.5 14.9297ZM27.5 14.9297V24.9297C27.5 26.3828 26.3828 27.5 25 27.5C23.6172 27.5 22.5 26.3828 22.5 25V14.9297C22.5 13.6172 23.6172 12.5 24.9297 12.5C26.2422 12.5 27.5 13.6172 27.5 14.9297Z" fill="url(#paint0_linear_195_28516)"/>
<defs>
<linearGradient id="paint0_linear_195_28516" x1="-0.0104256" y1="19.9616" x2="39.9903" y2="19.9616" gradientUnits="userSpaceOnUse">
<stop stop-color="#FBB34C"/>
<stop offset="1" stop-color="#F56B18"/>
</linearGradient>
</defs>
</svg>
