<svg width="69" height="69" viewBox="0 0 69 69" fill="none" xmlns="http://www.w3.org/2000/svg">
<g clip-path="url(#clip0_189_16508)">
<path d="M35.9882 28.547C37.1723 28.547 38.308 29.0174 39.1453 29.8547C39.9826 30.692 40.4529 31.8276 40.4529 33.0117C40.4529 33.4064 40.6097 33.785 40.8888 34.0641C41.1679 34.3432 41.5465 34.5 41.9412 34.5C42.3359 34.5 42.7144 34.3432 42.9935 34.0641C43.2726 33.785 43.4294 33.4064 43.4294 33.0117C43.4294 31.0382 42.6454 29.1455 41.2499 27.75C39.8545 26.3545 37.9618 25.5706 35.9882 25.5706C35.5935 25.5706 35.215 25.7274 34.9359 26.0065C34.6568 26.2855 34.5 26.6641 34.5 27.0588C34.5 27.4535 34.6568 27.832 34.9359 28.1111C35.215 28.3902 35.5935 28.547 35.9882 28.547Z" fill="url(#paint0_linear_189_16508)"/>
<path d="M35.9882 22.5944C38.7512 22.5944 41.4009 23.692 43.3546 25.6456C45.3083 27.5993 46.4059 30.2491 46.4059 33.012C46.4059 33.4067 46.5627 33.7853 46.8418 34.0644C47.1209 34.3435 47.4994 34.5003 47.8941 34.5003C48.2888 34.5003 48.6674 34.3435 48.9465 34.0644C49.2256 33.7853 49.3823 33.4067 49.3823 33.012C49.3823 29.4597 47.9712 26.0528 45.4593 23.541C42.9474 21.0291 39.5406 19.6179 35.9882 19.6179C35.5935 19.6179 35.215 19.7747 34.9359 20.0538C34.6568 20.3329 34.5 20.7115 34.5 21.1062C34.5 21.5009 34.6568 21.8794 34.9359 22.1585C35.215 22.4376 35.5935 22.5944 35.9882 22.5944Z" fill="url(#paint1_linear_189_16508)"/>
<path d="M49.0118 40.3193C48.9299 40.0804 48.7886 39.8662 48.6012 39.697C48.4137 39.5277 48.1863 39.409 47.9402 39.3519L39.0108 37.313C38.7685 37.2581 38.5162 37.2647 38.277 37.3323C38.0378 37.3999 37.8194 37.5263 37.6417 37.7C37.4333 37.8934 37.4184 37.9083 36.4511 39.7537C33.2412 38.2747 30.6693 35.6921 29.2034 32.4763C31.0934 31.5238 31.1083 31.5238 31.3018 31.3006C31.4755 31.1228 31.6019 30.9044 31.6695 30.6652C31.7371 30.426 31.7437 30.1738 31.6887 29.9314L29.6498 21.1062C29.5928 20.8601 29.474 20.6327 29.3048 20.4452C29.1356 20.2578 28.9214 20.1165 28.6825 20.0346C28.3349 19.9105 27.976 19.8208 27.611 19.7667C27.2348 19.6795 26.851 19.6297 26.465 19.6179C24.6494 19.6179 22.9081 20.3392 21.6243 21.623C20.3404 22.9069 19.6191 24.6482 19.6191 26.4638C19.627 32.5398 22.0442 38.3647 26.3406 42.6611C30.637 46.9576 36.4619 49.3747 42.538 49.3826C43.437 49.3826 44.3272 49.2055 45.1578 48.8615C45.9883 48.5175 46.743 48.0132 47.3787 47.3775C48.0144 46.7418 48.5187 45.9871 48.8627 45.1565C49.2068 44.326 49.3838 43.4358 49.3838 42.5367C49.3843 42.1579 49.3544 41.7797 49.2945 41.4057C49.232 41.036 49.1374 40.6725 49.0118 40.3193Z" fill="url(#paint2_linear_189_16508)"/>
<g filter="url(#filter0_f_189_16508)">
<circle cx="34.5002" cy="34.4999" r="20.2941" fill="url(#paint3_linear_189_16508)"/>
</g>
</g>
<rect x="0.5" y="0.5" width="68" height="68" rx="34" stroke="#EFEFEF"/>
<defs>
<filter id="filter0_f_189_16508" x="-585.794" y="-585.794" width="1240.59" height="1240.59" filterUnits="userSpaceOnUse" color-interpolation-filters="sRGB">
<feFlood flood-opacity="0" result="BackgroundImageFix"/>
<feBlend mode="normal" in="SourceGraphic" in2="BackgroundImageFix" result="shape"/>
<feGaussianBlur stdDeviation="300" result="effect1_foregroundBlur_189_16508"/>
</filter>
<linearGradient id="paint0_linear_189_16508" x1="34.5681" y1="30.0353" x2="43.4975" y2="30.0353" gradientUnits="userSpaceOnUse">
<stop stop-color="#FBB34C"/>
<stop offset="1" stop-color="#F56B18"/>
</linearGradient>
<linearGradient id="paint1_linear_189_16508" x1="34.6134" y1="27.0591" x2="49.4958" y2="27.0591" gradientUnits="userSpaceOnUse">
<stop stop-color="#FBB34C"/>
<stop offset="1" stop-color="#F56B18"/>
</linearGradient>
<linearGradient id="paint2_linear_189_16508" x1="19.846" y1="34.5003" x2="49.6107" y2="34.5003" gradientUnits="userSpaceOnUse">
<stop stop-color="#FBB34C"/>
<stop offset="1" stop-color="#F56B18"/>
</linearGradient>
<linearGradient id="paint3_linear_189_16508" x1="14.1955" y1="34.4609" x2="54.7844" y2="34.4609" gradientUnits="userSpaceOnUse">
<stop stop-color="#FBB34C"/>
<stop offset="1" stop-color="#F56B18"/>
</linearGradient>
<clipPath id="clip0_189_16508">
<rect width="69" height="69" rx="34.5" fill="white"/>
</clipPath>
</defs>
</svg>
