<svg width="40" height="40" viewBox="0 0 40 40" fill="none" xmlns="http://www.w3.org/2000/svg">
<path d="M20 0C8.95312 0 0 8.95312 0 20C0 31.0469 8.95312 40 20 40C31.0469 40 40 31.0469 40 20C40 8.95312 31.0469 0 20 0ZM29.1016 21.6016L17.8516 28.4766C17.5547 28.6562 17.2109 28.75 16.875 28.75C15.8055 28.75 15 27.875 15 26.875V13.125C15 12.1328 15.7969 11.25 16.875 11.25C17.2144 11.25 17.553 11.3419 17.8523 11.5247L29.1023 18.3997C29.6562 18.7422 30 19.3438 30 20C30 20.6562 29.6562 21.2578 29.1016 21.6016Z" fill="url(#paint0_linear_175_142)"/>
<defs>
<linearGradient id="paint0_linear_175_142" x1="-0.0104256" y1="19.9616" x2="39.9903" y2="19.9616" gradientUnits="userSpaceOnUse">
<stop stop-color="#FBB34C"/>
<stop offset="1" stop-color="#F56B18"/>
</linearGradient>
</defs>
</svg>
