<svg width="36" height="36" viewBox="0 0 36 36" fill="none" xmlns="http://www.w3.org/2000/svg">
<path d="M31.5 6.74981C21.9487 6.74981 18.945 2.76731 18.9225 2.73356C18.8191 2.58454 18.6812 2.46272 18.5206 2.37849C18.36 2.29426 18.1814 2.25011 18 2.24981C17.8167 2.2408 17.6343 2.27962 17.4706 2.36246C17.3069 2.44531 17.1675 2.56932 17.0662 2.72231C17.0662 2.72231 14.0512 6.74981 4.5 6.74981C4.20163 6.74981 3.91548 6.86834 3.7045 7.07932C3.49353 7.2903 3.375 7.57644 3.375 7.87481V17.7298C3.375 28.1361 11.3738 31.2298 16.1438 33.0973L17.5725 33.6598C17.7072 33.7193 17.8528 33.7501 18 33.7501C18.1472 33.7501 18.2928 33.7193 18.4275 33.6598L19.845 33.0973C24.6262 31.2411 32.625 28.1248 32.625 17.7298V7.87481C32.625 7.57644 32.5065 7.2903 32.2955 7.07932C32.0845 6.86834 31.7984 6.74981 31.5 6.74981Z" fill="#D8E1EF"/>
<path d="M20.25 16.875H15.75C15.4516 16.875 15.1655 16.7565 14.9545 16.5455C14.7435 16.3345 14.625 16.0484 14.625 15.75V13.5C14.625 12.6049 14.9806 11.7464 15.6135 11.1135C16.2464 10.4806 17.1049 10.125 18 10.125C18.8951 10.125 19.7536 10.4806 20.3865 11.1135C21.0194 11.7464 21.375 12.6049 21.375 13.5V15.75C21.375 16.0484 21.2565 16.3345 21.0455 16.5455C20.8345 16.7565 20.5484 16.875 20.25 16.875ZM16.875 14.625H19.125V13.5C19.125 13.2016 19.0065 12.9155 18.7955 12.7045C18.5845 12.4935 18.2984 12.375 18 12.375C17.7016 12.375 17.4155 12.4935 17.2045 12.7045C16.9935 12.9155 16.875 13.2016 16.875 13.5V14.625Z" fill="#0E6AE0"/>
<path d="M20.25 14.625H15.75C13.886 14.625 12.375 16.136 12.375 18V22.5C12.375 24.364 13.886 25.875 15.75 25.875H20.25C22.114 25.875 23.625 24.364 23.625 22.5V18C23.625 16.136 22.114 14.625 20.25 14.625Z" fill="#0593FF"/>
<path d="M18 22.5C17.555 22.5 17.12 22.368 16.75 22.1208C16.38 21.8736 16.0916 21.5222 15.9213 21.111C15.751 20.6999 15.7064 20.2475 15.7932 19.811C15.8801 19.3746 16.0943 18.9737 16.409 18.659C16.7237 18.3443 17.1246 18.1301 17.561 18.0432C17.9975 17.9564 18.4499 18.001 18.861 18.1713C19.2722 18.3416 19.6236 18.63 19.8708 19C20.118 19.37 20.25 19.805 20.25 20.25C20.25 20.8467 20.0129 21.419 19.591 21.841C19.169 22.2629 18.5967 22.5 18 22.5Z" fill="#0E6AE0"/>
</svg>
