<svg width="20" height="20" viewBox="0 0 20 20" fill="none" xmlns="http://www.w3.org/2000/svg">
<path d="M16.8889 3H2.11111C0.945052 3 0 3.95926 0 5.14286V15.8571C0 17.0407 0.945052 18 2.11111 18H16.8889C18.0549 18 19 17.0407 19 15.8571V5.14286C19 3.95926 18.0533 3 16.8889 3ZM1.58762 5.14286C1.58762 4.84694 1.82393 4.60714 2.1154 4.60714H16.8866C17.178 4.60714 17.4144 4.84694 17.4144 5.14286V6.21429H1.58762V5.14286ZM17.4134 15.8571C17.4134 16.153 17.1771 16.3929 16.8856 16.3929H2.1154C1.82393 16.3929 1.58762 16.153 1.58762 15.8571L1.58333 9.42857H17.4167L17.4134 15.8571ZM3.95833 14.7857H5.54167C5.97873 14.7857 6.30365 14.4258 6.30365 13.9821C6.30365 13.5385 5.98038 13.1786 5.54167 13.1786H3.95833C3.52292 13.1786 3.16667 13.5402 3.16667 13.9821C3.16667 14.4241 3.52292 14.7857 3.95833 14.7857ZM8.18056 14.7857H11.875C12.3121 14.7857 12.6667 14.4258 12.6667 13.9821C12.6667 13.5382 12.3121 13.1786 11.875 13.1786H8.18056C7.74184 13.1786 7.38889 13.5368 7.38889 13.9821C7.38889 14.4275 7.74184 14.7857 8.18056 14.7857Z" fill="#26AF5F"/>
</svg>
