<svg width="20" height="20" viewBox="0 0 20 20" fill="none" xmlns="http://www.w3.org/2000/svg">
<path d="M17.5 9.16683C17.5 13.7918 14.3 18.1168 10 19.1668C5.7 18.1168 2.5 13.7918 2.5 9.16683V4.16683L10 0.833496L17.5 4.16683V9.16683ZM10 17.5002C13.125 16.6668 15.8333 12.9502 15.8333 9.35016V5.25016L10 2.65016L4.16667 5.25016V9.35016C4.16667 12.9502 6.875 16.6668 10 17.5002ZM12.3333 9.16683V7.91683C12.3333 6.75016 11.1667 5.8335 10 5.8335C8.83333 5.8335 7.66667 6.75016 7.66667 7.91683V9.16683C7.16667 9.16683 6.66667 9.66683 6.66667 10.1668V13.0835C6.66667 13.6668 7.16667 14.1668 7.66667 14.1668H12.25C12.8333 14.1668 13.3333 13.6668 13.3333 13.1668V10.2502C13.3333 9.66683 12.8333 9.16683 12.3333 9.16683ZM11.25 9.16683H8.75V7.91683C8.75 7.25016 9.33333 6.8335 10 6.8335C10.6667 6.8335 11.25 7.25016 11.25 7.91683V9.16683Z" fill="#26AF5F"/>
</svg>
