<svg width="556" height="423" viewBox="0 0 556 423" fill="none" xmlns="http://www.w3.org/2000/svg">
<circle cx="164.34" cy="414.143" r="6" transform="rotate(-30 164.34 414.143)" fill="url(#paint0_linear_301_101)"/>
<circle cx="252.34" cy="381.875" r="6" transform="rotate(-30 252.34 381.875)" fill="url(#paint1_linear_301_101)"/>
<circle cx="59.2416" cy="321.248" r="3" transform="rotate(-30 59.2416 321.248)" fill="url(#paint2_linear_301_101)"/>
<circle r="10" transform="matrix(0.866025 -0.5 -0.5 -0.866025 358.804 328.803)" fill="url(#paint3_linear_301_101)"/>
<circle r="6" transform="matrix(0.866025 -0.5 -0.5 -0.866025 83.3397 364.165)" fill="url(#paint4_linear_301_101)"/>
<circle r="3" transform="matrix(0.866025 -0.5 -0.5 -0.866025 329.241 397.408)" fill="url(#paint5_linear_301_101)"/>
<path d="M418 156C418 183.446 412.594 210.624 402.091 235.981C391.588 261.338 376.193 284.378 356.785 303.785C337.378 323.193 314.338 338.588 288.981 349.091C263.624 359.594 236.446 365 209 365C181.554 365 154.376 359.594 129.019 349.091C103.662 338.588 80.6221 323.193 61.2147 303.785C41.8072 284.378 26.4124 261.338 15.9092 235.981C5.40594 210.624 -2.39943e-06 183.446 0 156L418 156Z" fill="#FEF5E8"/>
<g filter="url(#filter0_d_301_101)">
<rect x="169" y="35" width="368" height="219" rx="22" fill="white"/>
<circle cx="279.5" cy="96.5" r="12.5" stroke="url(#paint6_linear_301_101)" stroke-width="4"/>
<circle cx="460.5" cy="85.5" r="10" stroke="url(#paint7_linear_301_101)" stroke-width="3"/>
<circle cx="241" cy="192" r="21.5" stroke="url(#paint8_linear_301_101)" stroke-width="5"/>
<circle cx="404" cy="181" r="53.5" stroke="url(#paint9_linear_301_101)" stroke-width="7"/>
</g>
<g clip-path="url(#clip0_301_101)">
<path fill-rule="evenodd" clip-rule="evenodd" d="M222.117 110.957C222.185 112.341 222.798 113.642 223.821 114.575C224.844 115.507 226.195 115.995 227.576 115.931C226.194 116.001 224.896 116.617 223.966 117.644C223.036 118.671 222.55 120.025 222.614 121.41C222.544 120.027 221.93 118.727 220.908 117.795C219.885 116.862 218.535 116.374 217.155 116.436C218.535 116.366 219.832 115.751 220.762 114.726C221.692 113.7 222.179 112.348 222.117 110.964V110.957Z" fill="white"/>
<path fill-rule="evenodd" clip-rule="evenodd" d="M328.149 180.033L295.835 169.622L269.858 155.821L302.109 142.062L328.149 136.668L350.97 140.293L386.446 155.821L351.793 176.189L328.149 180.033Z" fill="#C91E6A"/>
<path fill-rule="evenodd" clip-rule="evenodd" d="M328.149 136.668L350.97 140.293L386.446 155.821L351.793 176.189L328.149 180.033V136.668Z" fill="#BA1C62"/>
<path fill-rule="evenodd" clip-rule="evenodd" d="M269.858 155.821L240.16 157.221L316.458 133.762L328.149 136.669L269.858 155.821Z" fill="#F75287"/>
<path fill-rule="evenodd" clip-rule="evenodd" d="M386.446 155.821L412.664 152.41L345.639 133.591L328.149 136.669L386.446 155.821Z" fill="#F75287"/>
<path d="M328.05 184.689L327.234 184.859C327.468 184.447 327.405 184.227 327.043 184.205C326.866 184.086 326.681 183.979 326.49 183.886C326.107 183.644 325.731 183.388 325.356 183.132C324.477 182.528 323.612 181.896 322.782 181.221C321.272 180.017 319.851 178.706 318.528 177.298C315.871 174.538 313.759 171.3 312.304 167.753C310.872 164.338 310.382 160.6 310.886 156.93C311.436 153.546 312.853 150.362 314.998 147.691C317.028 145.071 319.844 143.173 323.03 142.276C326.433 141.409 330.403 141.977 333.126 144.323C334.405 145.361 335.272 146.823 335.571 148.445C335.87 150.067 335.581 151.743 334.756 153.17C332.559 156.859 327.957 155.8 325.086 153.547C319.074 148.821 317.437 140.044 319.989 133.073C321.43 129.381 323.774 126.112 326.805 123.566C329.837 121.02 333.459 119.279 337.337 118.504C341.35 117.793 345.625 118.575 348.539 121.588C351.098 124.232 352.083 128.254 349.786 131.381C347.716 134.224 343.803 135.269 341.059 132.739C338.315 130.209 337.635 126.101 337.684 122.576C337.791 115.071 341.825 107.737 347.837 103.331C354.43 98.4987 363.122 97.1556 371.034 98.7972C373.003 99.2078 374.932 99.7928 376.798 100.545C377.861 100.972 378.315 99.252 377.273 98.8327C368.489 95.2794 358.088 95.4215 349.708 100.041C345.858 102.18 342.592 105.235 340.196 108.936C337.8 112.638 336.349 116.873 335.969 121.269C335.671 125.398 336.366 130.06 339.131 133.3C341.896 136.541 346.44 136.747 349.694 134.046C351.285 132.735 352.365 130.904 352.746 128.875C353.127 126.846 352.785 124.747 351.778 122.946C349.652 118.888 345.299 116.621 340.832 116.45C335.983 116.258 331.112 118.227 327.227 121.041C323.618 123.608 320.75 127.084 318.911 131.118C315.459 138.985 316.969 149.212 323.874 154.769C327.128 157.385 332.24 158.771 335.423 155.26C336.67 153.828 337.405 152.02 337.511 150.122C337.616 148.225 337.086 146.346 336.004 144.785C333.537 141.316 329.028 139.746 324.895 140.137C321.028 140.574 317.446 142.387 314.799 145.246C312.036 148.161 310.147 151.796 309.347 155.736C308.563 159.93 308.999 164.262 310.602 168.215C312.3 172.392 314.831 176.176 318.039 179.337C319.652 180.952 321.387 182.439 323.229 183.786C324.42 184.667 327.199 187.226 328.645 185.499C329.794 184.12 327.348 182.109 326.518 183.786C326.008 184.802 327.539 185.705 328.05 184.681V184.689Z" fill="url(#paint10_linear_301_101)"/>
<path fill-rule="evenodd" clip-rule="evenodd" d="M269.858 155.821L328.149 180.034L336.99 223.008L328.149 254L269.858 229.781V155.821Z" fill="#E84A7D"/>
<path fill-rule="evenodd" clip-rule="evenodd" d="M386.446 155.821L328.149 180.034V254L386.446 229.781V155.821Z" fill="#CC387A"/>
<path fill-rule="evenodd" clip-rule="evenodd" d="M269.858 191.035V161.25L328.149 180.033L310.836 207.693C296.905 202.836 283.229 197.276 269.858 191.035Z" fill="#CC387A"/>
<path fill-rule="evenodd" clip-rule="evenodd" d="M386.446 191.035V161.25L328.149 180.033L345.504 207.693C359.422 202.834 373.087 197.274 386.446 191.035Z" fill="#B5306B"/>
<path fill-rule="evenodd" clip-rule="evenodd" d="M269.858 155.821L250.759 176.118C270.106 186.326 290.188 195.068 310.836 202.271L328.184 180.034L269.858 155.821Z" fill="#F75287"/>
<path fill-rule="evenodd" clip-rule="evenodd" d="M386.446 155.821L405.539 176.118C386.205 186.323 366.138 195.065 345.504 202.271L328.149 180.034L386.446 155.821Z" fill="#F75287"/>
<path fill-rule="evenodd" clip-rule="evenodd" d="M324.221 75.4235V82.6012L330.141 77.6834C345.462 69.4539 347.241 106.693 368.425 115.264L382.235 117.907L397.478 107.702L371.806 65.3178C353.99 50.4577 325.979 55.1481 324.221 75.4235Z" fill="#D98C47"/>
<path fill-rule="evenodd" clip-rule="evenodd" d="M324.221 75.4235V77.5555L325.547 77.9464C338.968 64.8132 347.603 78.7494 357.174 93.4958C363.221 102.827 366.837 110.239 379.86 115.093L391.99 111.426L397.513 107.73L371.806 65.3178C353.99 50.4577 325.979 55.1481 324.221 75.4235Z" fill="#F5C42B"/>
<path fill-rule="evenodd" clip-rule="evenodd" d="M356.443 105.634C359.676 109.763 363.533 113.281 368.439 115.263L382.249 117.907L397.492 107.702L378.4 76.2334C373.161 87.9736 365.44 97.3971 356.422 105.634H356.443Z" fill="#637091"/>
<path fill-rule="evenodd" clip-rule="evenodd" d="M391.969 111.397L397.492 107.702L378.4 76.2334C374.3 85.2419 368.651 93.4569 361.711 100.503C365.816 106.565 370.304 111.504 379.839 115.064L391.969 111.397Z" fill="#089EA6"/>
<path fill-rule="evenodd" clip-rule="evenodd" d="M324.221 75.4232V82.601L330.141 77.6832C336.522 74.2649 340.527 78.6923 344.582 85.6427C351.367 76.5248 355.167 67.1653 355.834 57.486C340.768 54.1458 325.504 60.6271 324.221 75.4232Z" fill="#CC387A"/>
<path fill-rule="evenodd" clip-rule="evenodd" d="M324.221 75.4231V77.5551L325.547 77.946C334.685 69.0058 341.605 72.6089 348.106 80.476C352.693 72.9998 355.295 65.3459 355.834 57.5143C340.768 54.1742 325.504 60.6554 324.221 75.4516V75.4231Z" fill="#E84A7D"/>
<path fill-rule="evenodd" clip-rule="evenodd" d="M321.669 75.1604C323.231 74.5792 324.93 74.4751 326.552 74.8613C328.173 75.2476 329.644 76.1069 330.778 77.3306C331.912 78.5543 332.659 80.0875 332.924 81.7366C333.19 83.3857 332.962 85.0766 332.269 86.5958C331.576 88.1149 330.449 89.3941 329.031 90.2717C327.614 91.1494 325.968 91.5861 324.303 91.5267C322.637 91.4673 321.027 90.9145 319.675 89.938C318.323 88.9616 317.29 87.6054 316.707 86.0407C316.317 84.9999 316.137 83.8922 316.176 82.7814C316.215 81.6705 316.472 80.5783 316.934 79.5674C317.395 78.5565 318.05 77.6468 318.863 76.8905C319.676 76.1343 320.629 75.5463 321.669 75.1604Z" fill="url(#paint11_linear_301_101)"/>
<path fill-rule="evenodd" clip-rule="evenodd" d="M439.405 29.8482L444.29 35.4625L436.321 35.6686C418.746 39.7194 442.702 70.0365 431.976 91.2429L404.128 105.215L395.351 54.4871C399.158 30.7224 424.227 15.2014 439.405 29.8482Z" fill="#D98C47"/>
<path fill-rule="evenodd" clip-rule="evenodd" d="M440.483 35.5336L436.314 35.6473C418.739 39.6981 442.695 70.0152 431.968 91.2216L408.821 102.834L400.087 57.2658C402.788 33.9133 425.177 19.4085 439.512 34.3681L440.483 35.5336Z" fill="#F5C42B"/>
<path fill-rule="evenodd" clip-rule="evenodd" d="M400.087 57.2658L408.814 102.827L421.263 96.58C423.007 89.7007 422.157 81.1372 418.732 70.9959C415.698 62.0486 410.728 52.2556 404.589 43.0596C402.176 47.4545 400.647 52.281 400.087 57.2658Z" fill="#D98C47"/>
<path fill-rule="evenodd" clip-rule="evenodd" d="M434.847 77.0934C434.932 81.9899 434.209 86.8153 431.969 91.2428L420.767 97.7454L407.02 103.758C406.198 103.594 405.213 103.367 403.759 103.125L398.385 72.0405C410.305 75.1223 422.54 76.8178 434.847 77.0934Z" fill="#089EA6"/>
<path fill-rule="evenodd" clip-rule="evenodd" d="M408.814 102.826L421.263 96.5797C422.681 90.8944 422.369 84.0293 420.264 76.0912C414.508 75.4435 408.792 74.4779 403.142 73.1987L408.814 102.826Z" fill="#637091"/>
<path fill-rule="evenodd" clip-rule="evenodd" d="M439.406 29.848L444.29 35.4622L436.322 35.6683C429.083 37.3384 428.892 43.4857 430.423 51.5731C419.658 50.5169 409.365 46.6205 400.59 40.2806C409.672 25.3565 427.53 18.4133 439.406 29.848Z" fill="#CC387A"/>
<path fill-rule="evenodd" clip-rule="evenodd" d="M440.483 35.5335L436.314 35.6472C429.076 37.3172 428.885 43.4645 430.416 51.5519C421.296 50.6367 412.492 47.7046 404.638 42.9671C412.529 28.8319 428.431 22.777 439.512 34.3467L440.483 35.5335Z" fill="#E84A7D"/>
<path fill-rule="evenodd" clip-rule="evenodd" d="M441.221 27.8935C439.601 28.5029 438.197 29.5802 437.188 30.989C436.179 32.3978 435.609 34.0749 435.551 35.8083C435.493 37.5417 435.948 39.2535 436.86 40.7273C437.773 42.2011 439.1 43.3707 440.675 44.0881C442.251 44.8056 444.003 45.0388 445.71 44.7581C447.418 44.4774 449.004 43.6956 450.268 42.5114C451.532 41.3272 452.417 39.7938 452.812 38.1052C453.207 36.4166 453.093 34.6485 452.486 33.0246C451.669 30.8477 450.024 29.0847 447.912 28.1226C445.8 27.1606 443.393 27.0782 441.221 27.8935Z" fill="url(#paint12_linear_301_101)"/>
<path fill-rule="evenodd" clip-rule="evenodd" d="M348.517 34.6524L350.467 29.1874C360.031 18.7761 371.133 17.0136 383.908 23.232C396.911 29.564 428.729 76.7951 418.045 98.2288L405.836 109.13L380.853 112.03C362.831 77.7331 381.25 57.671 366.844 36.955C362.796 31.1346 355.309 32.2504 348.496 34.624L348.517 34.6524Z" fill="#D98C47"/>
<path fill-rule="evenodd" clip-rule="evenodd" d="M349.9 30.7864L350.467 29.1874C360.031 18.7761 371.133 17.0136 383.908 23.232C396.911 29.564 428.729 76.7951 418.045 98.2288L407.892 107.311L386.971 109.735C368.928 75.4377 387.347 55.3755 372.962 34.688C368.914 28.8747 358.074 28.8747 351.282 31.2483L349.864 30.7864H349.9Z" fill="#F5C42B"/>
<path fill-rule="evenodd" clip-rule="evenodd" d="M417.293 72.0405C420.533 81.9472 421.448 91.3991 418.045 98.2287L405.836 109.13L380.853 112.03C376.672 104.284 373.961 95.829 372.856 87.0925C388.256 84.0523 403.19 78.9914 417.272 72.0405H417.293Z" fill="#637091"/>
<path fill-rule="evenodd" clip-rule="evenodd" d="M417.293 72.0405C420.533 81.9472 421.448 91.3991 418.045 98.2287L407.892 107.311L387.155 110.232C383.07 102.602 380.342 94.3176 379.094 85.7493C392.304 82.6427 405.118 78.0436 417.293 72.0405Z" fill="#0AA8B0"/>
<path fill-rule="evenodd" clip-rule="evenodd" d="M348.517 34.6524L350.467 29.1874C360.031 18.7761 371.133 17.0136 383.908 23.232C387.602 25.03 392.806 30.1184 398.123 36.9763C390.763 44.028 382.117 49.5921 372.657 53.3643C372.237 47.4678 370.228 41.7962 366.844 36.955C362.796 31.1346 355.309 32.2504 348.496 34.624L348.517 34.6524Z" fill="#CC387A"/>
<path fill-rule="evenodd" clip-rule="evenodd" d="M349.9 30.7864L350.467 29.1874C360.031 18.7761 371.133 17.0136 383.908 23.232C387.602 25.03 392.806 30.1184 398.123 36.9763C392.381 42.4902 385.836 47.096 378.712 50.6354C378.233 44.9039 376.25 39.4016 372.962 34.688C368.914 28.8747 358.074 28.8747 351.282 31.2483L349.864 30.7864H349.9Z" fill="#E84A7D"/>
<path fill-rule="evenodd" clip-rule="evenodd" d="M343.746 28.839C345.307 28.2513 347.006 28.1407 348.63 28.5213C350.253 28.9019 351.728 29.7565 352.867 30.9771C354.005 32.1976 354.758 33.7293 355.028 35.3785C355.299 37.0276 355.075 38.7201 354.386 40.2419C353.697 41.7638 352.573 43.0465 351.156 43.9281C349.74 44.8096 348.094 45.2502 346.428 45.1943C344.762 45.1383 343.149 44.5883 341.795 43.6138C340.441 42.6393 339.405 41.284 338.819 39.7194C338.033 37.6216 338.111 35.2968 339.035 33.2564C339.959 31.216 341.653 29.627 343.746 28.839Z" fill="url(#paint13_linear_301_101)"/>
<path fill-rule="evenodd" clip-rule="evenodd" d="M433.549 87.2983C432.951 87.267 432.353 87.3868 431.812 87.6466L431.593 87.7674C427.098 90.3826 422.49 92.8487 417.903 95.0944C401.568 103.107 384.236 108.889 366.369 112.285C366.058 112.342 365.757 112.442 365.475 112.584C365.135 112.747 364.826 112.968 364.561 113.238C365.792 114.021 367.09 114.694 368.439 115.249L382.249 117.893L393.16 110.587L405.836 109.13L416.471 99.6071L420.724 97.7452L431.926 91.2425C432.58 89.9774 433.123 88.6577 433.549 87.2983Z" fill="#637091"/>
<path fill-rule="evenodd" clip-rule="evenodd" d="M366.9 115.128C390.204 110.686 412.577 102.273 433.046 90.2549C433.155 90.2089 433.273 90.1863 433.392 90.1886C433.51 90.1909 433.627 90.2181 433.734 90.2682C433.842 90.3184 433.938 90.3906 434.016 90.4801C434.094 90.5695 434.152 90.6744 434.187 90.7879L437.732 100.332C437.798 100.553 437.783 100.789 437.689 100.999C437.596 101.209 437.43 101.379 437.222 101.476C417.15 114.306 394.62 122.779 371.083 126.35C370.861 126.41 370.624 126.389 370.416 126.292C370.207 126.194 370.039 126.026 369.942 125.817L366.397 116.272C366.35 116.164 366.325 116.048 366.326 115.929C366.326 115.811 366.351 115.695 366.399 115.587C366.447 115.479 366.517 115.383 366.605 115.304C366.692 115.225 366.795 115.165 366.907 115.128H366.9Z" fill="#F5C42B"/>
<path fill-rule="evenodd" clip-rule="evenodd" d="M368.971 123.18L369.97 125.838C370.068 126.047 370.235 126.216 370.444 126.313C370.653 126.411 370.889 126.431 371.112 126.371C394.649 122.801 417.179 114.328 437.25 101.498C437.458 101.4 437.624 101.231 437.718 101.021C437.811 100.811 437.827 100.574 437.761 100.353L436.704 97.5107C416.09 110.569 393.048 119.302 368.971 123.18Z" fill="#D98C47"/>
<path fill-rule="evenodd" clip-rule="evenodd" d="M342.739 33.5579C343.487 33.276 344.302 33.2228 345.08 33.405C345.859 33.5873 346.566 33.9968 347.112 34.5818C347.658 35.1668 348.019 35.901 348.148 36.6916C348.278 37.4822 348.171 38.2936 347.841 39.0232C347.511 39.7529 346.972 40.3679 346.293 40.7907C345.614 41.2134 344.826 41.4249 344.027 41.3982C343.228 41.3716 342.455 41.108 341.805 40.641C341.156 40.1739 340.659 39.5243 340.378 38.7742C340.003 37.7686 340.041 36.655 340.484 35.6773C340.926 34.6996 341.737 33.9375 342.739 33.5579Z" fill="#F5C42B"/>
<path fill-rule="evenodd" clip-rule="evenodd" d="M444.829 32.5346C445.578 32.2539 446.392 32.202 447.17 32.3854C447.948 32.5688 448.654 32.9793 449.2 33.5649C449.745 34.1505 450.105 34.8851 450.233 35.6756C450.362 36.4662 450.254 37.2773 449.923 38.0064C449.592 38.7355 449.053 39.3499 448.374 39.7718C447.695 40.1938 446.906 40.4044 446.107 40.3771C445.309 40.3497 444.536 40.0857 443.887 39.6182C443.238 39.1508 442.742 38.501 442.461 37.7509C442.275 37.2526 442.188 36.7223 442.206 36.1904C442.225 35.6584 442.347 35.1353 442.567 34.6509C442.787 34.1665 443.1 33.7302 443.488 33.3671C443.876 33.004 444.332 32.7211 444.829 32.5346Z" fill="#F5C42B"/>
<path fill-rule="evenodd" clip-rule="evenodd" d="M320.818 81.2794C321.529 81.013 322.303 80.9637 323.042 81.1378C323.781 81.3118 324.452 81.7014 324.971 82.2574C325.489 82.8134 325.831 83.5108 325.955 84.2617C326.078 85.0126 325.977 85.7832 325.664 86.4765C325.35 87.1697 324.839 87.7544 324.195 88.1568C323.551 88.5592 322.802 88.7612 322.043 88.7374C321.284 88.7136 320.55 88.4651 319.932 88.0231C319.314 87.5811 318.84 86.9655 318.571 86.2541C318.392 85.7795 318.308 85.2743 318.325 84.7674C318.341 84.2605 318.457 83.7617 318.666 83.2997C318.874 82.8377 319.172 82.4214 319.541 82.0748C319.911 81.7281 320.344 81.4578 320.818 81.2794Z" fill="#F5C42B"/>
<path opacity="0.2" fill-rule="evenodd" clip-rule="evenodd" d="M382.646 25.8401C374.5 21.8746 367.425 21.4766 361.002 24.6178C360.073 25.0837 359.173 25.6058 358.308 26.1812C363.98 24.3619 370.176 25.1366 377.152 28.5336C384.66 32.1935 401.632 53.7339 408.793 74.862C410.884 81.0235 411.884 86.5099 411.799 91.1292C411.791 91.51 411.867 91.8877 412.02 92.2361C412.174 92.5845 412.401 92.8951 412.687 93.1462C412.972 93.3973 413.309 93.5828 413.674 93.6898C414.038 93.7969 414.422 93.8228 414.798 93.7658H414.84C415.284 93.6887 415.704 93.5086 416.067 93.2399C416.34 93.035 416.569 92.7772 416.741 92.4818C416.912 92.1863 417.023 91.8593 417.066 91.5201C417.775 86.3322 416.868 79.7727 414.294 72.1757C407.134 51.0404 390.161 29.5001 382.646 25.8401Z" fill="white"/>
<path opacity="0.2" fill-rule="evenodd" clip-rule="evenodd" d="M367.191 65.488C362.882 62.5542 357.967 60.6349 352.814 59.8737C346.943 59.0138 341.201 59.76 336.649 62.0057C333.055 63.7682 328.73 67.1581 327.433 73.4972C329.149 70.1772 331.913 67.5206 335.295 65.9428C339.854 63.7113 345.596 62.958 351.467 63.8108C356.283 64.5239 360.895 66.2482 365.001 68.8708C365.283 69.0486 365.605 69.1526 365.937 69.1733C366.27 69.194 366.602 69.1308 366.904 68.9894C367.206 68.848 367.468 68.6329 367.665 68.3639C367.863 68.0948 367.99 67.7804 368.035 67.4495V67.3997C368.083 67.0341 368.03 66.6622 367.881 66.3249C367.733 65.9876 367.494 65.698 367.191 65.488Z" fill="white"/>
<path opacity="0.2" fill-rule="evenodd" clip-rule="evenodd" d="M428.523 35.9173C424.61 37.8361 422.617 41.496 422.603 46.7976C422.603 50.9408 423.723 55.8728 424.922 61.0962C426.581 68.3166 428.395 76.2122 427.63 83.4894C427.581 83.9584 427.706 84.4289 427.983 84.8106C428.259 85.1924 428.666 85.4583 429.126 85.5574H429.161C429.407 85.606 429.661 85.6053 429.907 85.5554C430.153 85.5055 430.387 85.4075 430.595 85.2668C430.803 85.1262 430.981 84.9458 431.12 84.7359C431.258 84.526 431.354 84.2908 431.401 84.0437C433.004 76.0842 430.948 67.1369 429.09 59.0495C427.892 53.8261 426.758 48.8941 426.765 44.7509C426.765 40.3945 428.133 37.1467 430.792 35.0645C430.012 35.2803 429.252 35.5657 428.523 35.9173Z" fill="white"/>
<path style="mix-blend-mode:color-dodge" d="M537.816 185.793C538.724 173.918 507.506 161.788 468.061 158.714C428.616 155.64 395.927 162.776 395.019 174.687C394.111 186.598 425.329 198.692 464.756 201.766C504.183 204.839 536.89 197.667 537.816 185.793Z" fill="url(#paint14_radial_301_101)"/>
<path style="mix-blend-mode:color-dodge" d="M315.816 166.793C316.724 154.918 285.506 142.788 246.061 139.714C206.616 136.64 173.927 143.776 173.019 155.687C172.111 167.598 203.329 179.692 242.756 182.766C282.183 185.839 314.89 178.667 315.816 166.793Z" fill="url(#paint15_radial_301_101)"/>
</g>
<defs>
<filter id="filter0_d_301_101" x="150" y="16" width="406" height="257" filterUnits="userSpaceOnUse" color-interpolation-filters="sRGB">
<feFlood flood-opacity="0" result="BackgroundImageFix"/>
<feColorMatrix in="SourceAlpha" type="matrix" values="0 0 0 0 0 0 0 0 0 0 0 0 0 0 0 0 0 0 127 0" result="hardAlpha"/>
<feOffset/>
<feGaussianBlur stdDeviation="9.5"/>
<feComposite in2="hardAlpha" operator="out"/>
<feColorMatrix type="matrix" values="0 0 0 0 0 0 0 0 0 0 0 0 0 0 0 0 0 0 0.09 0"/>
<feBlend mode="normal" in2="BackgroundImageFix" result="effect1_dropShadow_301_101"/>
<feBlend mode="normal" in="SourceGraphic" in2="effect1_dropShadow_301_101" result="shape"/>
</filter>
<linearGradient id="paint0_linear_301_101" x1="158.337" y1="414.131" x2="170.337" y2="414.131" gradientUnits="userSpaceOnUse">
<stop stop-color="#00A8FF"/>
<stop offset="1" stop-color="#62C9FF"/>
</linearGradient>
<linearGradient id="paint1_linear_301_101" x1="246.337" y1="381.863" x2="258.337" y2="381.863" gradientUnits="userSpaceOnUse">
<stop stop-color="#FBB34C"/>
<stop offset="1" stop-color="#F56B18"/>
</linearGradient>
<linearGradient id="paint2_linear_301_101" x1="56.2401" y1="321.243" x2="62.2402" y2="321.243" gradientUnits="userSpaceOnUse">
<stop stop-color="#FBB34C"/>
<stop offset="1" stop-color="#F56B18"/>
</linearGradient>
<linearGradient id="paint3_linear_301_101" x1="-0.00521281" y1="9.98079" x2="19.9951" y2="9.98079" gradientUnits="userSpaceOnUse">
<stop stop-color="#FBB34C"/>
<stop offset="1" stop-color="#F56B18"/>
</linearGradient>
<linearGradient id="paint4_linear_301_101" x1="-0.00312769" y1="5.98847" x2="11.9971" y2="5.98847" gradientUnits="userSpaceOnUse">
<stop stop-color="#FBB34C"/>
<stop offset="1" stop-color="#F56B18"/>
</linearGradient>
<linearGradient id="paint5_linear_301_101" x1="-0.00156384" y1="2.99424" x2="5.99854" y2="2.99424" gradientUnits="userSpaceOnUse">
<stop stop-color="#00A8FF"/>
<stop offset="1" stop-color="#62C9FF"/>
</linearGradient>
<linearGradient id="paint6_linear_301_101" x1="264.992" y1="96.4721" x2="293.993" y2="96.4721" gradientUnits="userSpaceOnUse">
<stop stop-color="#00A8FF"/>
<stop offset="1" stop-color="#62C9FF"/>
</linearGradient>
<linearGradient id="paint7_linear_301_101" x1="448.994" y1="85.4779" x2="471.994" y2="85.4779" gradientUnits="userSpaceOnUse">
<stop stop-color="#00A8FF"/>
<stop offset="1" stop-color="#62C9FF"/>
</linearGradient>
<linearGradient id="paint8_linear_301_101" x1="216.987" y1="191.954" x2="264.988" y2="191.954" gradientUnits="userSpaceOnUse">
<stop stop-color="#00A8FF"/>
<stop offset="1" stop-color="#62C9FF"/>
</linearGradient>
<linearGradient id="paint9_linear_301_101" x1="346.97" y1="180.89" x2="460.972" y2="180.89" gradientUnits="userSpaceOnUse">
<stop stop-color="#00A8FF"/>
<stop offset="1" stop-color="#62C9FF"/>
</linearGradient>
<linearGradient id="paint10_linear_301_101" x1="308.95" y1="141.131" x2="377.845" y2="141.131" gradientUnits="userSpaceOnUse">
<stop stop-color="#00A8FF"/>
<stop offset="1" stop-color="#62C9FF"/>
</linearGradient>
<linearGradient id="paint11_linear_301_101" x1="316.167" y1="83.0659" x2="333.028" y2="83.0659" gradientUnits="userSpaceOnUse">
<stop stop-color="#00A8FF"/>
<stop offset="1" stop-color="#62C9FF"/>
</linearGradient>
<linearGradient id="paint12_linear_301_101" x1="435.541" y1="36.0882" x2="453.039" y2="36.0882" gradientUnits="userSpaceOnUse">
<stop stop-color="#00A8FF"/>
<stop offset="1" stop-color="#62C9FF"/>
</linearGradient>
<linearGradient id="paint13_linear_301_101" x1="338.276" y1="36.7329" x2="355.136" y2="36.7329" gradientUnits="userSpaceOnUse">
<stop stop-color="#00A8FF"/>
<stop offset="1" stop-color="#62C9FF"/>
</linearGradient>
<radialGradient id="paint14_radial_301_101" cx="0" cy="0" r="1" gradientUnits="userSpaceOnUse" gradientTransform="translate(464.002 191.038) rotate(4.3646) scale(71.7166 21.3476)">
<stop stop-color="#3C5054"/>
<stop offset="0.06" stop-color="#314245"/>
<stop offset="0.17" stop-color="#1F2A2C"/>
<stop offset="0.3" stop-color="#111718"/>
<stop offset="0.45" stop-color="#070A0A"/>
<stop offset="0.64" stop-color="#020202"/>
<stop offset="0.97"/>
</radialGradient>
<radialGradient id="paint15_radial_301_101" cx="0" cy="0" r="1" gradientUnits="userSpaceOnUse" gradientTransform="translate(242.002 172.038) rotate(4.3646) scale(71.7166 21.3476)">
<stop stop-color="#3C5054"/>
<stop offset="0.06" stop-color="#314245"/>
<stop offset="0.17" stop-color="#1F2A2C"/>
<stop offset="0.3" stop-color="#111718"/>
<stop offset="0.45" stop-color="#070A0A"/>
<stop offset="0.64" stop-color="#020202"/>
<stop offset="0.97"/>
</radialGradient>
<clipPath id="clip0_301_101">
<rect width="249" height="254" fill="white" transform="translate(213)"/>
</clipPath>
</defs>
</svg>
