<svg width="300" height="300" viewBox="0 0 300 300" fill="none" xmlns="http://www.w3.org/2000/svg">
<g clip-path="url(#clip0_1288_11747)">
<path d="M41.3088 230.723C80.3246 241.427 89.5696 238.425 96.5246 248.891C99.5757 253.37 101.011 258.755 100.596 264.158C100.007 269.164 97.769 273.831 94.2346 277.424C80.8674 290.367 44.0569 274.523 22.9883 257.203C18.3912 253.437 6.02493 243.293 8.53551 236.101C9.55331 233.149 12.7255 231.69 14.9816 230.672C25.007 226.126 35.4225 229.112 41.3088 230.723Z" fill="url(#paint0_linear_1288_11747)"/>
<path d="M161.851 -31.7175H153.539V22.8198H161.851V-31.7175Z" fill="url(#paint1_linear_1288_11747)"/>
<path d="M186.397 17.1042H129.01C124.775 17.1042 121.342 20.5371 121.342 24.7717V45.2804C121.342 49.5151 124.775 52.9479 129.01 52.9479H186.397C190.631 52.9479 194.064 49.5151 194.064 45.2804V24.7717C194.064 20.5371 190.631 17.1042 186.397 17.1042Z" fill="url(#paint2_linear_1288_11747)"/>
<path d="M134.319 34.255H181.002C195.03 34.2371 208.924 36.9847 221.889 42.3406C234.854 47.6965 246.637 55.5556 256.562 65.4685C266.488 75.3814 274.362 87.1537 279.734 100.112C285.106 113.07 287.872 126.961 287.872 140.989V172.15C287.872 188.059 281.552 203.316 270.303 214.564C259.054 225.813 243.797 232.133 227.889 232.133H87.5848C71.6765 232.133 56.4197 225.813 45.1707 214.564C33.9218 203.316 27.6023 188.059 27.6023 172.15V140.989C27.6023 112.681 38.8474 85.533 58.8638 65.5165C78.8803 45.5001 106.028 34.255 134.336 34.255H134.319Z" fill="url(#paint3_linear_1288_11747)"/>
<path d="M246.871 166.449C243.418 168.14 239.622 169.017 235.777 169.01H79.7139C75.8631 169.017 72.062 168.141 68.6028 166.449C64.6506 164.652 61.371 161.647 59.2369 157.867C57.1028 154.087 56.2244 149.726 56.7285 145.414V144.786C60.7318 115.779 86.9911 93.4722 119.205 91.8098C132.775 91.0974 147.126 90.7242 162.037 90.809C173.725 90.809 185.023 91.2331 195.964 91.7928C228.296 93.4892 254.759 115.66 258.728 144.786L258.813 145.414C259.307 149.733 258.416 154.097 256.27 157.877C254.124 161.658 250.833 164.659 246.871 166.449Z" fill="url(#paint4_linear_1288_11747)"/>
<path style="mix-blend-mode:screen" d="M116.541 162.632C132.805 162.632 145.99 149.447 145.99 133.183C145.99 116.919 132.805 103.735 116.541 103.735C100.277 103.735 87.0928 116.919 87.0928 133.183C87.0928 149.447 100.277 162.632 116.541 162.632Z" fill="url(#paint5_radial_1288_11747)"/>
<path d="M116.541 154.32C128.215 154.32 137.678 144.857 137.678 133.184C137.678 121.511 128.215 112.048 116.541 112.048C104.868 112.048 95.405 121.511 95.405 133.184C95.405 144.857 104.868 154.32 116.541 154.32Z" fill="#EEFDFF"/>
<path d="M116.542 150.928C126.341 150.928 134.286 142.983 134.286 133.184C134.286 123.384 126.341 115.44 116.542 115.44C106.742 115.44 98.7981 123.384 98.7981 133.184C98.7981 142.983 106.742 150.928 116.542 150.928Z" fill="url(#paint6_linear_1288_11747)"/>
<path d="M127.924 128.588C127.924 129.889 127.538 131.162 126.814 132.244C126.091 133.327 125.063 134.17 123.861 134.668C122.658 135.167 121.334 135.297 120.058 135.043C118.781 134.789 117.608 134.162 116.688 133.242C115.767 132.321 115.14 131.148 114.886 129.872C114.633 128.595 114.763 127.272 115.261 126.069C115.759 124.866 116.603 123.838 117.685 123.115C118.768 122.392 120.04 122.006 121.342 122.006C123.087 122.006 124.762 122.699 125.996 123.934C127.23 125.168 127.924 126.842 127.924 128.588Z" fill="#EEFDFF"/>
<path d="M113.912 149.435C115.364 149.435 116.541 148.257 116.541 146.805C116.541 145.353 115.364 144.176 113.912 144.176C112.46 144.176 111.282 145.353 111.282 146.805C111.282 148.257 112.46 149.435 113.912 149.435Z" fill="#EEFDFF"/>
<path d="M107.415 142.855C107.419 143.118 107.343 143.376 107.199 143.596C107.055 143.816 106.849 143.988 106.606 144.091C106.364 144.193 106.096 144.221 105.838 144.17C105.58 144.12 105.343 143.993 105.157 143.807C104.971 143.621 104.844 143.384 104.794 143.125C104.743 142.867 104.771 142.6 104.873 142.357C104.975 142.115 105.147 141.908 105.368 141.764C105.588 141.62 105.846 141.545 106.109 141.548C106.454 141.553 106.784 141.692 107.028 141.936C107.272 142.18 107.411 142.51 107.415 142.855Z" fill="#EEFDFF"/>
<path style="mix-blend-mode:screen" d="M196.082 162.632C212.346 162.632 225.531 149.447 225.531 133.183C225.531 116.919 212.346 103.735 196.082 103.735C179.818 103.735 166.634 116.919 166.634 133.183C166.634 149.447 179.818 162.632 196.082 162.632Z" fill="url(#paint7_radial_1288_11747)"/>
<path d="M196.083 154.32C207.756 154.32 217.219 144.857 217.219 133.184C217.219 121.511 207.756 112.048 196.083 112.048C184.409 112.048 174.946 121.511 174.946 133.184C174.946 144.857 184.409 154.32 196.083 154.32Z" fill="#EEFDFF"/>
<path d="M196.083 150.928C205.882 150.928 213.827 142.983 213.827 133.184C213.827 123.384 205.882 115.44 196.083 115.44C186.283 115.44 178.339 123.384 178.339 133.184C178.339 142.983 186.283 150.928 196.083 150.928Z" fill="url(#paint8_linear_1288_11747)"/>
<path d="M207.465 128.588C207.465 129.889 207.079 131.162 206.356 132.244C205.633 133.327 204.605 134.17 203.402 134.668C202.2 135.167 200.876 135.297 199.6 135.043C198.323 134.789 197.15 134.162 196.23 133.242C195.309 132.321 194.682 131.148 194.428 129.872C194.174 128.595 194.305 127.272 194.803 126.069C195.301 124.866 196.145 123.838 197.227 123.115C198.309 122.392 199.582 122.006 200.884 122.006C202.629 122.006 204.303 122.699 205.538 123.934C206.772 125.168 207.465 126.842 207.465 128.588Z" fill="#EEFDFF"/>
<path d="M193.454 149.435C194.906 149.435 196.083 148.257 196.083 146.805C196.083 145.353 194.906 144.176 193.454 144.176C192.001 144.176 190.824 145.353 190.824 146.805C190.824 148.257 192.001 149.435 193.454 149.435Z" fill="#EEFDFF"/>
<path d="M186.956 142.853C186.958 143.026 186.926 143.198 186.862 143.358C186.797 143.519 186.701 143.665 186.58 143.788C186.458 143.911 186.313 144.008 186.154 144.075C185.994 144.142 185.823 144.176 185.65 144.176C185.465 144.197 185.277 144.179 185.1 144.122C184.922 144.066 184.758 143.973 184.619 143.849C184.48 143.724 184.369 143.572 184.293 143.402C184.217 143.232 184.177 143.048 184.177 142.861C184.177 142.675 184.217 142.491 184.293 142.321C184.369 142.151 184.48 141.999 184.619 141.874C184.758 141.75 184.922 141.657 185.1 141.6C185.277 141.544 185.465 141.526 185.65 141.547C185.996 141.547 186.329 141.684 186.574 141.929C186.819 142.174 186.956 142.507 186.956 142.853Z" fill="#EEFDFF"/>
<path d="M249.382 68.3846C249.517 73.3549 245.463 79.2921 240.9 79.801C236.54 80.276 233.063 75.8315 229.467 71.2345C225.87 66.6374 218.203 55.1023 221.273 51.8114C225.26 47.4688 249.042 56.7138 249.382 68.3846Z" fill="white"/>
<path d="M209.569 49.4366C211.611 49.4366 213.267 47.7809 213.267 45.7385C213.267 43.6962 211.611 42.0405 209.569 42.0405C207.526 42.0405 205.871 43.6962 205.871 45.7385C205.871 47.7809 207.526 49.4366 209.569 49.4366Z" fill="white"/>
<path d="M248.805 137.341C247.617 138.172 239.339 121.31 217.117 106.688C209.314 101.599 201.596 97.8839 202.054 96.8152C202.512 95.7465 211.197 97.7482 218.152 100.971C240.323 111.251 250.264 136.34 248.805 137.341Z" fill="white"/>
<path d="M191.96 27.706C191.689 27.706 191.519 26.1963 190.264 23.7875C189.868 23.0733 189.432 22.3824 188.958 21.718C186.736 18.6476 179.17 18.7155 178.576 18.7155C166.787 18.8172 159.221 18.0708 159.221 18.1387C159.221 18.2065 164.751 18.1387 168.805 18.003C180.222 17.7655 187.024 17.1548 189.942 20.2252C190.719 21.0796 191.334 22.0682 191.757 23.1429C192.4 24.5832 192.473 26.2141 191.96 27.706Z" fill="white"/>
<path d="M189.433 181.649C189.27 183.023 188.637 184.299 187.641 185.26C186.646 186.221 185.35 186.809 183.971 186.925L144.955 190.691C143.583 190.836 142.202 190.506 141.044 189.756C139.886 189.006 139.021 187.88 138.594 186.568C138.225 185.345 137.942 184.099 137.745 182.836C137.722 182.66 137.734 182.481 137.78 182.309C137.827 182.137 137.907 181.976 138.017 181.836C138.124 181.696 138.26 181.58 138.415 181.495C138.569 181.41 138.74 181.359 138.916 181.344L188.11 176.594C188.283 176.579 188.458 176.598 188.624 176.65C188.789 176.703 188.943 176.787 189.077 176.899C189.338 177.135 189.497 177.464 189.518 177.815C189.583 179.094 189.555 180.375 189.433 181.649Z" fill="#EEFDFF"/>
<path d="M189.433 181.666C188.82 187.605 186.184 193.154 181.967 197.381C177.75 201.609 172.209 204.258 166.271 204.887C160.333 205.515 154.36 204.083 149.352 200.832C144.344 197.58 140.605 192.706 138.763 187.026C139.267 188.222 140.143 189.223 141.262 189.88C142.381 190.537 143.682 190.815 144.972 190.673L183.987 186.924C185.36 186.803 186.649 186.215 187.64 185.258C188.63 184.301 189.263 183.033 189.433 181.666Z" fill="url(#paint9_linear_1288_11747)"/>
<path d="M250.96 269.263C250.96 269.62 250.96 269.959 250.96 270.298C250.87 272.609 250.447 274.894 249.705 277.084C238.967 309.874 232.538 327.176 223.513 341.171C221.952 343.58 220.307 345.904 218.56 348.177C216.253 351.214 213.725 354.182 210.926 357.236C204.684 364.021 195.252 367.074 192.267 368.143C181.155 372.062 171.351 371.349 164.82 371.4H163.683C157.135 371.4 147.33 372.062 136.219 368.143C133.183 367.074 123.751 364.004 117.56 357.236C100.427 338.576 93.811 323.071 78.7814 277.084C78.0811 275.005 77.659 272.843 77.5261 270.654C77.5261 269.772 77.5261 268.958 77.5261 267.991C77.9805 262.167 80.2599 256.635 84.0401 252.181C87.4479 248.043 91.737 244.718 96.5941 242.449C101.451 240.181 106.754 239.026 112.114 239.069L164.294 238.848L215.523 238.644C221.004 238.56 226.435 239.696 231.423 241.97C236.41 244.244 240.83 247.599 244.361 251.791C247.6 255.571 249.793 260.132 250.722 265.023C250.824 265.667 250.926 266.346 250.994 266.99C251.062 267.635 250.96 268.517 250.96 269.263Z" fill="url(#paint10_linear_1288_11747)"/>
<path d="M164.174 238.9L111.995 239.12C106.635 239.085 101.335 240.243 96.4791 242.511C91.6231 244.779 87.333 248.1 83.9204 252.233C80.1469 256.697 77.8687 262.233 77.4065 268.06C77.8524 262.062 80.2336 256.371 84.1918 251.843C87.7215 247.649 92.1407 244.293 97.1287 242.019C102.117 239.745 107.548 238.61 113.03 238.696L164.174 238.9Z" fill="url(#paint11_linear_1288_11747)"/>
<path d="M216.048 315.778C215.285 275.303 209.806 267.297 217.881 257.661C221.309 253.488 226.051 250.6 231.333 249.468C236.3 248.624 241.408 249.453 245.853 251.826C262.053 261.003 257.236 300.782 246.566 325.888C244.242 331.367 237.999 346.058 230.399 345.701C227.278 345.566 224.988 342.936 223.377 341.053C216.235 332.707 216.167 321.885 216.048 315.778Z" fill="url(#paint12_linear_1288_11747)"/>
<path d="M223.495 341.223C221.935 343.632 220.289 345.956 218.542 348.229C217.982 347.652 217.473 347.075 217.032 346.532C209.891 338.169 209.806 327.364 209.704 321.257C208.941 280.782 203.445 272.776 211.536 263.157C213.314 261.014 215.435 259.18 217.813 257.729C209.84 267.33 215.285 275.405 216.116 315.761C216.218 321.868 216.32 332.724 223.428 341.036C223.459 341.095 223.482 341.158 223.495 341.223Z" fill="url(#paint13_linear_1288_11747)"/>
<path d="M246.329 282.073C245.942 277.341 245.043 272.666 243.649 268.129C241.528 259.766 238.848 255.678 240.578 254.066C241.715 253.014 243.971 253.727 244.446 253.88C252.096 256.322 254.471 270.673 254.132 279.664C253.945 285.16 252.588 291.301 250.587 291.538C250.285 291.578 249.979 291.554 249.687 291.47C249.395 291.385 249.124 291.241 248.89 291.046C246.651 289.112 246.498 285.381 246.329 282.073Z" fill="white"/>
<path d="M251.587 297.424C251.587 297.74 251.493 298.048 251.318 298.31C251.143 298.572 250.894 298.777 250.602 298.897C250.311 299.018 249.99 299.05 249.681 298.988C249.372 298.927 249.087 298.775 248.864 298.552C248.641 298.329 248.49 298.045 248.428 297.735C248.367 297.426 248.398 297.105 248.519 296.814C248.639 296.523 248.844 296.274 249.106 296.098C249.368 295.923 249.677 295.83 249.992 295.83C250.202 295.827 250.41 295.867 250.605 295.946C250.799 296.026 250.976 296.143 251.125 296.292C251.273 296.44 251.39 296.617 251.47 296.811C251.549 297.006 251.589 297.214 251.587 297.424Z" fill="white"/>
</g>
<defs>
<linearGradient id="paint0_linear_1288_11747" x1="8.90739" y1="255.212" x2="101.371" y2="255.212" gradientUnits="userSpaceOnUse">
<stop stop-color="#FBB34C"/>
<stop offset="1" stop-color="#F56B18"/>
</linearGradient>
<linearGradient id="paint1_linear_1288_11747" x1="153.602" y1="-4.44887" x2="161.914" y2="-4.44887" gradientUnits="userSpaceOnUse">
<stop stop-color="#FBB34C"/>
<stop offset="1" stop-color="#F56B18"/>
</linearGradient>
<linearGradient id="paint2_linear_1288_11747" x1="121.897" y1="35.0261" x2="194.619" y2="35.0261" gradientUnits="userSpaceOnUse">
<stop stop-color="#FBB34C"/>
<stop offset="1" stop-color="#F56B18"/>
</linearGradient>
<linearGradient id="paint3_linear_1288_11747" x1="29.5861" y1="133.194" x2="289.855" y2="133.194" gradientUnits="userSpaceOnUse">
<stop stop-color="#FBB34C"/>
<stop offset="1" stop-color="#F56B18"/>
</linearGradient>
<linearGradient id="paint4_linear_1288_11747" x1="157.237" y1="168.773" x2="158.797" y2="98.6461" gradientUnits="userSpaceOnUse">
<stop stop-color="#030D14"/>
<stop offset="1" stop-color="#0B2F45"/>
</linearGradient>
<radialGradient id="paint5_radial_1288_11747" cx="0" cy="0" r="1" gradientUnits="userSpaceOnUse" gradientTransform="translate(116.541 133.183) scale(29.1431)">
<stop offset="0.13" stop-color="#3280FC"/>
<stop offset="1"/>
</radialGradient>
<linearGradient id="paint6_linear_1288_11747" x1="98.7811" y1="133.184" x2="134.286" y2="133.184" gradientUnits="userSpaceOnUse">
<stop stop-color="#030D14"/>
<stop offset="1" stop-color="#0B2F45"/>
</linearGradient>
<radialGradient id="paint7_radial_1288_11747" cx="0" cy="0" r="1" gradientUnits="userSpaceOnUse" gradientTransform="translate(196.082 133.183) scale(29.1431)">
<stop offset="0.13" stop-color="#3280FC"/>
<stop offset="1"/>
</radialGradient>
<linearGradient id="paint8_linear_1288_11747" x1="178.339" y1="133.184" x2="213.844" y2="133.184" gradientUnits="userSpaceOnUse">
<stop stop-color="#030D14"/>
<stop offset="1" stop-color="#0B2F45"/>
</linearGradient>
<linearGradient id="paint9_linear_1288_11747" x1="156.625" y1="196" x2="207.397" y2="145.245" gradientUnits="userSpaceOnUse">
<stop offset="0.07" stop-color="#232232"/>
<stop offset="1" stop-color="white"/>
</linearGradient>
<linearGradient id="paint10_linear_1288_11747" x1="78.8485" y1="305.041" x2="252.339" y2="305.041" gradientUnits="userSpaceOnUse">
<stop stop-color="#FBB34C"/>
<stop offset="1" stop-color="#F56B18"/>
</linearGradient>
<linearGradient id="paint11_linear_1288_11747" x1="101.562" y1="271.741" x2="182.444" y2="177.306" gradientUnits="userSpaceOnUse">
<stop offset="0.04" stop-color="#06CFF1"/>
<stop offset="1" stop-color="#DEFA8E"/>
</linearGradient>
<linearGradient id="paint12_linear_1288_11747" x1="213.851" y1="297.427" x2="256.67" y2="297.427" gradientUnits="userSpaceOnUse">
<stop stop-color="#FBB34C"/>
<stop offset="1" stop-color="#F56B18"/>
</linearGradient>
<linearGradient id="paint13_linear_1288_11747" x1="207.298" y1="302.979" x2="223.62" y2="302.979" gradientUnits="userSpaceOnUse">
<stop stop-color="#FBB34C"/>
<stop offset="1" stop-color="#F56B18"/>
</linearGradient>
<clipPath id="clip0_1288_11747">
<rect width="300" height="300" fill="white"/>
</clipPath>
</defs>
</svg>
