<?xml version="1.0" standalone="no"?>
<!DOCTYPE svg PUBLIC "-//W3C//DTD SVG 20010904//EN"
 "http://www.w3.org/TR/2001/REC-SVG-20010904/DTD/svg10.dtd">
<svg version="1.0" xmlns="http://www.w3.org/2000/svg"
 width="700.000000pt" height="700.000000pt" viewBox="0 0 700.000000 700.000000"
 preserveAspectRatio="xMidYMid meet">
<metadata>
Created by potrace 1.14, written by Peter Selinger 2001-2017
</metadata>
<g transform="translate(0.000000,700.000000) scale(0.100000,-0.100000)"
fill="#000000" stroke="none">
<path d="M3580 6800 l0 -199 -318 -3 -319 -3 -37 -29 c-63 -47 -76 -89 -76
-247 l0 -136 -57 -7 c-97 -11 -281 -56 -418 -101 -389 -128 -713 -331 -1005
-631 -371 -382 -596 -837 -682 -1379 -21 -132 -22 -172 -23 -680 0 -486 2
-550 19 -640 55 -294 186 -545 391 -750 195 -195 428 -322 713 -387 l97 -22
1750 -4 c1235 -2 1779 0 1850 8 547 61 1007 429 1181 946 65 193 67 213 71
754 5 501 -1 653 -33 836 -176 1030 -970 1839 -1997 2034 -59 11 -119 20 -133
20 l-24 0 0 139 c0 150 -6 180 -48 225 -51 54 -65 56 -397 56 l-305 0 0 200 0
200 -100 0 -100 0 0 -200z m759 -231 c28 -6 62 -20 76 -31 35 -28 65 -90 64
-135 l0 -38 -23 50 c-60 131 -95 145 -401 154 l-220 8 227 1 c131 1 248 -3
277 -9z m582 -559 c5 0 18 -9 29 -20 29 -29 27 -84 -5 -115 -65 -66 -163 11
-129 100 8 20 63 46 82 40 8 -3 18 -5 23 -5z m444 -215 c182 -47 374 -183 428
-303 70 -156 -67 -376 -216 -348 -48 9 -112 61 -180 145 -134 165 -233 340
-244 429 -5 42 -2 53 16 71 26 26 107 29 196 6z m-421 -1099 c289 -97 517
-277 705 -558 64 -96 140 -251 148 -303 6 -38 1 -34 -97 90 -133 168 -344 378
-490 487 -63 47 -194 134 -290 193 -96 58 -182 113 -190 122 -26 27 92 10 214
-31z m-2093 -334 c235 -65 388 -301 351 -539 -42 -270 -293 -455 -560 -413
-262 42 -448 301 -404 562 32 187 174 344 353 392 75 20 182 19 260 -2z m1842
3 c121 -31 230 -111 298 -216 96 -151 93 -367 -9 -525 -100 -155 -294 -242
-476 -214 -245 37 -416 237 -416 486 0 315 300 548 603 469z m-283 -1500 c19
-23 8 -129 -16 -163 -39 -53 -62 -57 -534 -102 -245 -23 -464 -42 -487 -42
-82 -1 -138 56 -150 151 -3 28 -4 51 -2 52 2 1 263 27 579 59 316 31 580 58
586 59 6 0 17 -6 24 -14z"/>
<path d="M2598 4291 c-154 -50 -261 -170 -290 -330 -41 -221 125 -448 350
-479 231 -32 433 117 474 349 27 155 -56 334 -193 416 -104 62 -233 78 -341
44z m302 -163 c130 -68 92 -259 -55 -276 -59 -6 -118 27 -145 83 -23 47 -25
71 -9 112 21 56 83 102 139 103 14 0 46 -10 70 -22z m-402 -461 c4 -20 -25
-34 -40 -19 -15 15 -1 44 19 40 10 -2 19 -11 21 -21z m193 -47 c22 -12 27 -68
7 -88 -30 -30 -98 -1 -98 41 0 45 48 70 91 47z"/>
<path d="M4477 4300 c-97 -25 -212 -110 -261 -194 -94 -161 -67 -375 64 -506
203 -204 551 -143 672 117 56 120 49 275 -18 389 -36 62 -116 131 -190 166
-52 24 -81 31 -147 34 -45 2 -99 -1 -120 -6z m291 -177 c48 -36 66 -70 66
-123 0 -148 -188 -202 -272 -79 -46 66 -15 174 60 213 41 21 110 16 146 -11z
m-413 -458 c0 -22 -31 -33 -47 -17 -17 17 -1 44 24 40 15 -2 23 -10 23 -23z
m197 -52 c22 -20 23 -51 1 -75 -33 -36 -93 -13 -93 37 0 49 55 72 92 38z"/>
<path d="M532 1669 c-126 -16 -265 -78 -310 -138 -22 -28 -27 -45 -27 -90 1
-88 47 -163 180 -296 380 -379 988 -689 1437 -730 l67 -6 68 -205 68 -204
1961 0 1961 0 18 108 c27 164 32 474 10 603 -36 215 -108 344 -233 416 -26 15
-71 49 -101 75 -74 67 -127 102 -223 148 -170 81 -47 75 -1573 75 l-1360 0
-78 -23 c-43 -12 -114 -40 -157 -62 l-80 -40 -52 29 c-74 41 -149 62 -455 126
-147 32 -399 90 -560 131 -161 40 -332 78 -380 84 -97 11 -92 11 -181 -1z
m5197 -609 c102 -51 169 -205 193 -438 22 -226 -33 -458 -99 -416 -49 31 -57
59 -83 288 -12 98 -53 263 -111 446 -24 74 -28 99 -20 117 14 30 66 31 120 3z
m135 -985 c9 -25 -5 -45 -30 -45 -26 0 -40 20 -30 45 7 19 52 19 60 0z"/>
</g>
</svg>
