<svg width="14" height="14" viewBox="0 0 14 14" fill="none" xmlns="http://www.w3.org/2000/svg">
<path d="M1.7503 6.99144C1.71835 8.50563 2.28791 9.97075 3.33419 11.0658C4.38046 12.1608 5.81814 12.7965 7.33222 12.8335C8.33071 12.8224 9.30777 12.5425 10.1607 12.0232C11.0136 11.5039 11.7108 10.7644 12.1791 9.88243C12.2293 9.79058 12.2539 9.68692 12.2502 9.58232C12.2465 9.47772 12.2148 9.37603 12.1583 9.28792C12.1018 9.19982 12.0226 9.12853 11.9291 9.08154C11.8356 9.03455 11.7311 9.01359 11.6267 9.02085L11.5625 9.02552C11.4861 9.03135 11.4091 9.03719 11.3292 9.03719C10.1245 9.00027 8.98356 8.48756 8.15605 7.61129C7.32854 6.73502 6.88192 5.56659 6.91397 4.36177C6.91387 3.54674 7.1176 2.74463 7.50663 2.02843C7.55674 1.93667 7.58127 1.83313 7.57764 1.72864C7.57402 1.62415 7.54237 1.52255 7.48603 1.43448C7.42968 1.34641 7.3507 1.2751 7.25734 1.22802C7.16399 1.18094 7.0597 1.15981 6.95538 1.16685C5.51364 1.30359 4.17662 1.97944 3.21161 3.0593C2.24661 4.13915 1.72472 5.54345 1.7503 6.99144ZM6.03372 2.52777C5.84516 3.12084 5.74914 3.73944 5.74905 4.36177C5.72604 5.74568 6.20135 7.09174 7.08824 8.15436C7.97513 9.21698 9.2145 9.92534 10.5802 10.1502C10.1791 10.6209 9.68147 10.9999 9.12109 11.2616C8.56072 11.5233 7.95065 11.6615 7.33222 11.6669C6.12754 11.6299 4.98656 11.1172 4.15905 10.241C3.33154 9.36469 2.88492 8.19625 2.91697 6.99144C2.90334 6.01468 3.19687 5.05832 3.75611 4.2574C4.31535 3.45648 5.11206 2.85146 6.03372 2.52777Z" fill="currentColor"/>
</svg>
