<svg width="14" height="14" viewBox="0 0 14 14" fill="none" xmlns="http://www.w3.org/2000/svg">
<path d="M6.99967 10.5002C7.69191 10.5002 8.3686 10.2949 8.94417 9.91031C9.51974 9.52572 9.96835 8.9791 10.2333 8.33955C10.4982 7.70001 10.5675 6.99628 10.4324 6.31735C10.2974 5.63841 9.96403 5.01477 9.47455 4.52529C8.98506 4.03581 8.36142 3.70246 7.68249 3.56741C7.00356 3.43237 6.29982 3.50168 5.66028 3.76658C5.02074 4.03149 4.47412 4.48009 4.08953 5.05567C3.70495 5.63124 3.49967 6.30793 3.49967 7.00016C3.5006 7.92814 3.86965 8.81784 4.52582 9.47401C5.182 10.1302 6.0717 10.4992 6.99967 10.5002ZM6.99967 4.66683C7.46116 4.66683 7.91229 4.80368 8.296 5.06007C8.67972 5.31646 8.97879 5.68087 9.15539 6.10723C9.332 6.5336 9.37821 7.00275 9.28817 7.45537C9.19814 7.908 8.97591 8.32376 8.64959 8.65008C8.32327 8.9764 7.90751 9.19863 7.45489 9.28866C7.00226 9.37869 6.53311 9.33249 6.10675 9.15588C5.68039 8.97928 5.31597 8.68021 5.05958 8.29649C4.80319 7.91278 4.66634 7.46165 4.66634 7.00016C4.66634 6.38132 4.91217 5.78783 5.34976 5.35025C5.78734 4.91266 6.38084 4.66683 6.99967 4.66683ZM6.41634 1.75016V1.16683C6.41634 1.01212 6.4778 0.863747 6.5872 0.75435C6.69659 0.644954 6.84496 0.583496 6.99967 0.583496C7.15438 0.583496 7.30276 0.644954 7.41215 0.75435C7.52155 0.863747 7.58301 1.01212 7.58301 1.16683V1.75016C7.58301 1.90487 7.52155 2.05325 7.41215 2.16264C7.30276 2.27204 7.15438 2.3335 6.99967 2.3335C6.84496 2.3335 6.69659 2.27204 6.5872 2.16264C6.4778 2.05325 6.41634 1.90487 6.41634 1.75016ZM6.99967 11.6668C7.15438 11.6668 7.30276 11.7283 7.41215 11.8377C7.52155 11.9471 7.58301 12.0955 7.58301 12.2502V12.8335C7.58301 12.9882 7.52155 13.1366 7.41215 13.246C7.30276 13.3554 7.15438 13.4168 6.99967 13.4168C6.84496 13.4168 6.69659 13.3554 6.5872 13.246C6.4778 13.1366 6.41634 12.9882 6.41634 12.8335V12.2502C6.41634 12.0955 6.4778 11.9471 6.5872 11.8377C6.69659 11.7283 6.84496 11.6668 6.99967 11.6668ZM10.2996 3.70025C10.1902 3.59085 10.1288 3.44251 10.1288 3.28783C10.1288 3.13315 10.1902 2.9848 10.2996 2.87541L10.712 2.463C10.822 2.35674 10.9694 2.29794 11.1223 2.29927C11.2753 2.3006 11.4216 2.36195 11.5297 2.4701C11.6379 2.57826 11.6992 2.72456 11.7006 2.87751C11.7019 3.03046 11.6431 3.17781 11.5368 3.28783L11.1244 3.70025C11.015 3.8096 10.8667 3.87104 10.712 3.87104C10.5573 3.87104 10.409 3.8096 10.2996 3.70025ZM3.69976 10.3001C3.80912 10.4095 3.87055 10.5578 3.87055 10.7125C3.87055 10.8672 3.80912 11.0155 3.69976 11.1249L3.28734 11.5373C3.17732 11.6436 3.02997 11.7024 2.87702 11.7011C2.72408 11.6997 2.57777 11.6384 2.46961 11.5302C2.36146 11.4221 2.30011 11.2758 2.29878 11.1228C2.29745 10.9699 2.35625 10.8225 2.46251 10.7125L2.87492 10.3001C2.98432 10.1907 3.13266 10.1293 3.28734 10.1293C3.44202 10.1293 3.59037 10.1907 3.69976 10.3001ZM13.4163 7.00016C13.4163 7.15487 13.3549 7.30325 13.2455 7.41264C13.1361 7.52204 12.9877 7.5835 12.833 7.5835H12.2497C12.095 7.5835 11.9466 7.52204 11.8372 7.41264C11.7278 7.30325 11.6663 7.15487 11.6663 7.00016C11.6663 6.84545 11.7278 6.69708 11.8372 6.58768C11.9466 6.47829 12.095 6.41683 12.2497 6.41683H12.833C12.9877 6.41683 13.1361 6.47829 13.2455 6.58768C13.3549 6.69708 13.4163 6.84545 13.4163 7.00016ZM0.583008 7.00016C0.583008 6.84545 0.644466 6.69708 0.753862 6.58768C0.863258 6.47829 1.01163 6.41683 1.16634 6.41683H1.74967C1.90438 6.41683 2.05276 6.47829 2.16215 6.58768C2.27155 6.69708 2.33301 6.84545 2.33301 7.00016C2.33301 7.15487 2.27155 7.30325 2.16215 7.41264C2.05276 7.52204 1.90438 7.5835 1.74967 7.5835H1.16634C1.01163 7.5835 0.863258 7.52204 0.753862 7.41264C0.644466 7.30325 0.583008 7.15487 0.583008 7.00016ZM11.1244 10.3001L11.5368 10.7125C11.5926 10.7663 11.637 10.8307 11.6676 10.9018C11.6981 10.973 11.7142 11.0496 11.7149 11.127C11.7156 11.2045 11.7008 11.2813 11.6715 11.353C11.6422 11.4247 11.5988 11.4898 11.5441 11.5446C11.4893 11.5993 11.4242 11.6426 11.3525 11.672C11.2808 11.7013 11.204 11.7161 11.1265 11.7154C11.0491 11.7147 10.9725 11.6986 10.9014 11.6681C10.8302 11.6375 10.7658 11.593 10.712 11.5373L10.2996 11.1249C10.1933 11.0149 10.1345 10.8675 10.1359 10.7146C10.1372 10.5616 10.1985 10.4153 10.3067 10.3072C10.4149 10.199 10.5612 10.1377 10.7141 10.1364C10.8671 10.135 11.0144 10.1938 11.1244 10.3001ZM2.46251 3.28783C2.35625 3.17781 2.29745 3.03046 2.29878 2.87751C2.30011 2.72456 2.36146 2.57826 2.46961 2.4701C2.57777 2.36195 2.72408 2.3006 2.87702 2.29927C3.02997 2.29794 3.17732 2.35674 3.28734 2.463L3.69976 2.87541C3.75547 2.92922 3.79991 2.99359 3.83048 3.06476C3.86106 3.13593 3.87715 3.21247 3.87782 3.28993C3.87849 3.36738 3.86373 3.4442 3.8344 3.51589C3.80507 3.58758 3.76176 3.65271 3.70699 3.70748C3.65222 3.76225 3.58709 3.80556 3.5154 3.83489C3.44371 3.86422 3.36689 3.87898 3.28944 3.87831C3.21199 3.87764 3.13544 3.86154 3.06427 3.83097C2.9931 3.8004 2.92874 3.75596 2.87492 3.70025L2.46251 3.28783Z" fill="currentColor"/>
</svg>
