<svg width="142" height="27" viewBox="0 0 142 27" fill="none" xmlns="http://www.w3.org/2000/svg">
<path d="M62.3516 26.4209H67.277V21.5321H62.3516V26.4209Z" fill="currentColor"/>
<path d="M82.7529 26.9601C88.1492 26.9601 91.7709 22.5386 91.7709 16.7152C91.7709 10.784 88.113 6.47042 82.4994 6.47042C80.7791 6.47042 79.2942 6.90178 78.081 7.65666V0.539201H73.1193V26.4209H77.4653V25.3065C78.8415 26.349 80.598 26.9601 82.7529 26.9601ZM77.4653 16.7152C77.4653 13.1925 78.6966 10.82 81.7751 10.82C85.0708 10.82 86.5557 13.48 86.5557 16.7152C86.5557 19.9864 85.1432 22.6105 81.9561 22.6105C78.6604 22.6105 77.4653 20.238 77.4653 16.7152Z" fill="currentColor"/>
<path d="M96.1177 4.31361H101.043V0H96.1177V4.31361ZM96.1177 26.4209H101.043V7.00962H96.1177V26.4209Z" fill="currentColor"/>
<path d="M104.661 26.4209H141.874V22.1791H112.303L121.864 7.62071V7.00962H105.748V11.2513H114.259L104.661 25.8098V26.4209Z" fill="currentColor"/>
<path d="M9.65155 26.9599C15.0579 26.9599 18.6863 22.5596 18.6863 16.7641C18.6863 10.8613 15.0216 6.56835 9.39756 6.56835C7.67407 6.56835 6.18643 6.99764 4.97091 7.74891V0.665527H0V26.4233H4.35408V25.3143C5.73288 26.3517 7.49265 26.9599 9.65155 26.9599ZM4.35408 16.7641C4.35408 13.2582 5.58774 10.8971 8.67188 10.8971C11.9737 10.8971 13.4614 13.5444 13.4614 16.7641C13.4614 20.0196 12.0463 22.6312 8.8533 22.6312C5.55146 22.6312 4.35408 20.2701 4.35408 16.7641Z" fill="url(#paint0_linear_1_139)"/>
<path d="M31.4954 26.9599C37.3734 26.9599 41.4372 22.7743 41.4372 16.7641C41.4372 10.7898 37.4097 6.56835 31.4954 6.56835C25.6899 6.56835 21.5898 10.7182 21.5898 16.7641C21.5898 22.7385 25.5811 26.9599 31.4954 26.9599ZM26.8147 16.7641C26.8147 13.4013 28.2661 11.1117 31.4954 11.1117C34.6158 11.1117 36.2123 13.3298 36.2123 16.7641C36.2123 20.0912 34.6521 22.4165 31.4954 22.4165C28.4112 22.4165 26.8147 20.2343 26.8147 16.7641Z" fill="url(#paint1_linear_1_139)"/>
<path d="M57.1828 26.4233V22.3808C54.8606 22.7027 52.7924 22.7743 51.9216 21.4148C51.4499 20.6993 51.5225 19.4472 51.5225 17.9447V10.8613H57.1828V7.10497H51.5225V1.73877H46.5878V7.10497H43.2497V10.8613H46.5878V18.2309C46.5878 20.5562 46.4064 22.2734 47.3861 24.0264C48.9826 26.8526 53.119 27.1746 57.1828 26.4233Z" fill="url(#paint2_linear_1_139)"/>
<defs>
<linearGradient id="paint0_linear_1_139" x1="0.435845" y1="13.8127" x2="57.6186" y2="13.8127" gradientUnits="userSpaceOnUse">
<stop stop-color="#FBB34C"/>
<stop offset="1" stop-color="#F56B18"/>
</linearGradient>
<linearGradient id="paint1_linear_1_139" x1="0.435845" y1="13.8127" x2="57.6186" y2="13.8127" gradientUnits="userSpaceOnUse">
<stop stop-color="#FBB34C"/>
<stop offset="1" stop-color="#F56B18"/>
</linearGradient>
<linearGradient id="paint2_linear_1_139" x1="0.435845" y1="13.8127" x2="57.6186" y2="13.8127" gradientUnits="userSpaceOnUse">
<stop stop-color="#FBB34C"/>
<stop offset="1" stop-color="#F56B18"/>
</linearGradient>
</defs>
</svg>
