<svg width="40" height="31" viewBox="0 0 40 31" fill="none" xmlns="http://www.w3.org/2000/svg">
<path d="M7.24839 30.932V28.8746C7.24839 28.0876 6.76801 27.5723 5.94335 27.5723C5.53102 27.5723 5.08266 27.7081 4.77441 28.1555C4.53422 27.78 4.18995 27.5723 3.67353 27.5723C3.32926 27.5723 2.98498 27.6762 2.71276 28.0517V27.6402H1.99219V30.932H2.71276V29.1143C2.71276 28.5311 3.02101 28.2554 3.50139 28.2554C3.98178 28.2554 4.22197 28.563 4.22197 29.1143V30.932H4.94255V29.1143C4.94255 28.5311 5.28682 28.2554 5.73118 28.2554C6.21156 28.2554 6.45176 28.563 6.45176 29.1143V30.932H7.24839ZM17.9369 27.6402H16.768V26.6455H16.0474V27.6402H15.3949V28.2914H16.0474V29.8014C16.0474 30.5564 16.3557 30.9999 17.1803 30.9999C17.4886 30.9999 17.8329 30.896 18.0731 30.7602L17.8649 30.141C17.6567 30.2768 17.4165 30.3128 17.2444 30.3128C16.9001 30.3128 16.764 30.105 16.764 29.7655V28.2914H17.9329V27.6402H17.9369ZM24.0538 27.5683C23.6415 27.5683 23.3653 27.776 23.1932 28.0477V27.6362H22.4726V30.928H23.1932V29.0744C23.1932 28.5271 23.4333 28.2155 23.8817 28.2155C24.0178 28.2155 24.1899 28.2514 24.3301 28.2834L24.5382 27.5963C24.3941 27.5683 24.1899 27.5683 24.0538 27.5683ZM14.8104 27.9119C14.4662 27.6722 13.9858 27.5683 13.4694 27.5683C12.6447 27.5683 12.0963 27.9798 12.0963 28.6309C12.0963 29.1782 12.5086 29.4898 13.2292 29.5897L13.5735 29.6256C13.9498 29.6936 14.1579 29.7974 14.1579 29.9692C14.1579 30.2089 13.8817 30.3807 13.4013 30.3807C12.9209 30.3807 12.5406 30.2089 12.3004 30.0371L11.9562 30.5844C12.3325 30.8601 12.8489 30.9959 13.3653 30.9959C14.3261 30.9959 14.8785 30.5485 14.8785 29.9333C14.8785 29.35 14.4301 29.0424 13.7456 28.9385L13.4013 28.9026C13.0931 28.8666 12.8529 28.7987 12.8529 28.595C12.8529 28.3553 13.0931 28.2195 13.4734 28.2195C13.8857 28.2195 14.298 28.3912 14.5062 28.4951L14.8104 27.9119ZM33.9818 27.5683C33.5695 27.5683 33.2932 27.776 33.1211 28.0477V27.6362H32.4005V30.928H33.1211V29.0744C33.1211 28.5271 33.3613 28.2155 33.8096 28.2155C33.9458 28.2155 34.1179 28.2514 34.258 28.2834L34.4662 27.6043C34.3261 27.5683 34.1219 27.5683 33.9818 27.5683ZM24.7744 29.2861C24.7744 30.2808 25.463 30.9999 26.5278 30.9999C27.0082 30.9999 27.3525 30.896 27.6968 30.6244L27.3525 30.0411C27.0763 30.2488 26.804 30.3487 26.4918 30.3487C25.9073 30.3487 25.495 29.9372 25.495 29.2861C25.495 28.6669 25.9073 28.2554 26.4918 28.2235C26.8 28.2235 27.0763 28.3273 27.3525 28.5311L27.6968 27.9478C27.3525 27.6722 27.0082 27.5723 26.5278 27.5723C25.463 27.5683 24.7744 28.2914 24.7744 29.2861ZM31.4397 29.2861V27.6402H30.7192V28.0517C30.479 27.7441 30.1347 27.5723 29.6863 27.5723C28.7576 27.5723 28.037 28.2914 28.037 29.2861C28.037 30.2808 28.7576 30.9999 29.6863 30.9999C30.1667 30.9999 30.511 30.8281 30.7192 30.5205V30.932H31.4397V29.2861ZM28.7936 29.2861C28.7936 28.7028 29.1699 28.2235 29.7904 28.2235C30.3749 28.2235 30.7872 28.6709 30.7872 29.2861C30.7872 29.8693 30.3749 30.3487 29.7904 30.3487C29.1739 30.3128 28.7936 29.8653 28.7936 29.2861ZM20.1707 27.5683C19.21 27.5683 18.5214 28.2554 18.5214 29.2821C18.5214 30.3128 19.21 30.9959 20.2068 30.9959C20.6871 30.9959 21.1675 30.8601 21.5478 30.5485L21.2036 30.0331C20.9273 30.2409 20.5831 30.3767 20.2428 30.3767C19.7944 30.3767 19.3501 30.1689 19.246 29.5897H21.6839C21.6839 29.4858 21.6839 29.4179 21.6839 29.314C21.716 28.2554 21.0955 27.5683 20.1707 27.5683ZM20.1707 28.1875C20.6191 28.1875 20.9273 28.4631 20.9954 28.9745H19.278C19.3461 28.5311 19.6543 28.1875 20.1707 28.1875ZM38.0731 29.2861V26.3379H37.3525V28.0517C37.1123 27.7441 36.768 27.5723 36.3197 27.5723C35.3909 27.5723 34.6703 28.2914 34.6703 29.2861C34.6703 30.2808 35.3909 30.9999 36.3197 30.9999C36.8 30.9999 37.1443 30.8281 37.3525 30.5205V30.932H38.0731V29.2861ZM35.4269 29.2861C35.4269 28.7028 35.8032 28.2235 36.4237 28.2235C37.0082 28.2235 37.4205 28.6709 37.4205 29.2861C37.4205 29.8693 37.0082 30.3487 36.4237 30.3487C35.8032 30.3128 35.4269 29.8653 35.4269 29.2861ZM11.3036 29.2861V27.6402H10.5831V28.0517C10.3429 27.7441 9.99859 27.5723 9.55023 27.5723C8.62149 27.5723 7.90091 28.2914 7.90091 29.2861C7.90091 30.2808 8.62149 30.9999 9.55023 30.9999C10.0306 30.9999 10.3749 30.8281 10.5831 30.5205V30.932H11.3036V29.2861ZM8.62549 29.2861C8.62549 28.7028 9.0018 28.2235 9.62229 28.2235C10.2068 28.2235 10.6191 28.6709 10.6191 29.2861C10.6191 29.8693 10.2068 30.3487 9.62229 30.3487C9.0018 30.3128 8.62549 29.8653 8.62549 29.2861Z" fill="black"/>
<path d="M25.395 2.64062H14.5703V22.0476H25.395V2.64062Z" fill="#FF5A00"/>
<path d="M15.2922 12.3441C15.2922 8.40116 17.1497 4.90167 20 2.64059C17.9023 0.994716 15.2562 0 12.3699 0C5.53243 0 0 5.52088 0 12.3441C0 19.1673 5.53243 24.6881 12.3699 24.6881C15.2562 24.6881 17.9023 23.6934 20 22.0476C17.1457 19.8184 15.2922 16.287 15.2922 12.3441Z" fill="#EB001B"/>
<path d="M40 12.3441C40 19.1673 34.4676 24.6881 27.6301 24.6881C24.7438 24.6881 22.0977 23.6934 20 22.0476C22.8863 19.7825 24.7078 16.287 24.7078 12.3441C24.7078 8.40116 22.8503 4.90167 20 2.64059C22.0937 0.994716 24.7398 0 27.6261 0C34.4676 0 40 5.55683 40 12.3441Z" fill="#F79E1B"/>
</svg>
