<svg width="26" height="26" viewBox="0 0 26 26" fill="none" xmlns="http://www.w3.org/2000/svg">
<path d="M20.1604 16.8379C20.2199 17.27 20.0859 17.4572 19.937 17.4572C19.7881 17.4572 19.5796 17.2844 19.3563 16.9387C19.1329 16.593 19.0436 16.2041 19.1627 16.0024C19.2371 15.8728 19.3861 15.8152 19.5945 15.8872C19.9668 16.0168 20.1157 16.5786 20.1604 16.8379ZM18.0459 17.7885C18.5075 18.163 18.6415 18.6096 18.4032 18.9121C18.2692 19.0849 18.0459 19.1714 17.7927 19.1714C17.5396 19.1714 17.2715 19.0849 17.0928 18.9265C16.6759 18.5808 16.5568 18.0046 16.8248 17.6877C16.929 17.5581 17.1077 17.4861 17.3013 17.4861C17.5545 17.5005 17.8225 17.6013 18.0459 17.7885ZM17.2864 21.3896C19.252 21.3896 21.3814 22.0378 23.7342 24.0688C23.9725 24.2705 24.2852 24.0256 24.0767 23.7663C21.7537 20.9287 19.6094 20.3957 17.48 19.9348C14.8592 19.373 13.519 17.947 12.5809 16.3913C12.3873 16.0744 12.3128 16.132 12.2979 16.5354C12.2831 17.0251 12.3128 17.6733 12.432 18.3071C12.3277 18.3071 12.2235 18.3071 12.1193 18.3071C8.38162 18.3071 5.34386 15.3686 5.34386 11.7532C5.34386 8.13768 8.38162 5.19921 12.1193 5.19921C15.8569 5.19921 18.8946 8.13768 18.8946 11.7532C18.8946 12.0124 18.8798 12.2717 18.85 12.5166C18.3586 12.4302 17.3758 12.4157 16.6908 12.4734C16.4376 12.4878 16.4674 12.6174 16.661 12.6462C18.8946 13.0351 20.4433 14.3747 20.7858 16.8235C20.8007 16.8811 20.8751 16.8955 20.9049 16.8523C21.8282 15.3686 22.3494 13.6257 22.3494 11.7676C22.3494 6.29394 17.7629 1.85742 12.1044 1.85742C6.4458 1.85742 1.85938 6.29394 1.85938 11.7676C1.85938 17.2412 6.4458 21.6777 12.1044 21.6777C13.6084 21.6777 15.0975 21.3896 17.2864 21.3896Z" fill="#FF8C00"/>
</svg>
