<svg width="44" height="15" viewBox="0 0 44 15" fill="none" xmlns="http://www.w3.org/2000/svg">
<g clip-path="url(#clip0_2428_66301)">
<path d="M19.0643 14.7831H15.5L17.7294 0.262695H21.2935L19.0643 14.7831Z" fill="#00579F"/>
<path d="M31.9888 0.618191C31.2858 0.324391 30.1707 0 28.7919 0C25.2721 0 22.7934 1.97714 22.7782 4.80386C22.749 6.88941 24.5528 8.04777 25.902 8.74316C27.281 9.45374 27.7497 9.91754 27.7497 10.5509C27.7357 11.5237 26.6354 11.9721 25.6092 11.9721C24.1862 11.9721 23.4237 11.7409 22.265 11.1997L21.7956 10.9677L21.2969 14.2272C22.1328 14.6284 23.673 14.9844 25.2721 15C29.012 15 31.4468 13.0535 31.4756 10.0411C31.4899 8.38818 30.5373 7.12162 28.4838 6.08664C27.2371 5.42226 26.4737 4.97427 26.4737 4.29449C26.4883 3.6765 27.1194 3.04353 28.5267 3.04353C29.6854 3.01253 30.5368 3.30591 31.1817 3.59951L31.5041 3.7537L31.9888 0.618191Z" fill="#00579F"/>
<path d="M36.7255 9.63903C37.019 8.80485 38.1485 5.57634 38.1485 5.57634C38.1337 5.60734 38.4415 4.72677 38.6175 4.18618L38.8666 5.43735C38.8666 5.43735 39.5415 8.91305 39.6881 9.63903C39.1311 9.63903 37.4295 9.63903 36.7255 9.63903ZM41.1252 0.262695H38.3682C37.518 0.262695 36.8721 0.525082 36.5053 1.46746L31.2109 14.7829H34.9509C34.9509 14.7829 35.5666 12.9907 35.6989 12.6047C36.1092 12.6047 39.7474 12.6047 40.2752 12.6047C40.3775 13.1145 40.7005 14.7829 40.7005 14.7829H44.0007L41.1252 0.262695Z" fill="#00579F"/>
<path d="M12.5265 0.262695L9.03589 10.1642L8.65446 8.15608C8.00911 5.83894 5.98517 3.32142 3.72656 2.06964L6.92386 14.7677H10.693L16.2955 0.262695H12.5265Z" fill="#00579F"/>
<path d="M5.79329 0.262695H0.0586675L0 0.556084C4.47337 1.76105 7.43599 4.66558 8.6532 8.15669L7.40656 1.48327C7.20132 0.555879 6.57059 0.293287 5.79329 0.262695Z" fill="#FAA61A"/>
</g>
<defs>
<clipPath id="clip0_2428_66301">
<rect width="44" height="15" fill="white"/>
</clipPath>
</defs>
</svg>
