<svg width="28" height="28" viewBox="0 0 28 28" fill="none" xmlns="http://www.w3.org/2000/svg">
<path d="M17.7489 4.27148C12.3061 4.27148 7.97656 8.64329 7.97656 14.0003C7.97656 19.4189 12.3679 23.7291 17.7489 23.7291C23.1298 23.7291 27.5212 19.3573 27.5212 14.0003C27.5212 8.64329 23.1298 4.27148 17.7489 4.27148ZM17.7489 17.6332C15.7697 17.6332 14.0997 15.9707 14.0997 14.0003C14.0997 12.0299 15.7697 10.3674 17.7489 10.3674C19.7281 10.3674 21.398 12.0299 21.398 14.0003C21.3363 15.9707 19.7281 17.6332 17.7489 17.6332Z" fill="#8B3FFD"/>
<path d="M7.91683 7.10358V21.2657H4.45322L0 7.10358H7.91683Z" fill="#8B3FFD"/>
</svg>
