<svg width="54" height="54" viewBox="0 0 54 54" fill="none" xmlns="http://www.w3.org/2000/svg">
<path d="M27.0009 4.50439C22.1851 4.50439 18.2812 8.40828 18.2812 13.224C18.2812 19.7911 20.998 27.965 22.36 31.6708C23.0864 33.647 24.9682 34.8739 27.0056 34.8739C29.0378 34.8739 30.917 33.6533 31.6453 31.682C33.0086 27.9927 35.7203 19.8608 35.7203 13.224C35.7203 8.40828 31.8166 4.50439 27.0009 4.50439ZM21.6562 13.224C21.6562 10.2722 24.0491 7.8794 27.0009 7.8794C29.9524 7.8794 32.3453 10.2722 32.3453 13.224C32.3453 19.196 29.8438 26.8205 28.4796 30.5123C28.2647 31.0937 27.695 31.4989 27.0056 31.4989C26.3146 31.4989 25.7427 31.0914 25.5278 30.5066C24.1621 26.7905 21.6562 19.1263 21.6562 13.224Z" fill="#FA3A30"/>
<path d="M27.0025 38.2524C23.8945 38.2524 21.375 40.772 21.375 43.8799C21.375 46.9878 23.8945 49.5074 27.0025 49.5074C30.1106 49.5074 32.63 46.9878 32.63 43.8799C32.63 40.772 30.1106 38.2524 27.0025 38.2524ZM24.75 43.8799C24.75 42.6359 25.7584 41.6274 27.0025 41.6274C28.2465 41.6274 29.255 42.6359 29.255 43.8799C29.255 45.1239 28.2465 46.1324 27.0025 46.1324C25.7584 46.1324 24.75 45.1239 24.75 43.8799Z" fill="#FA3A30"/>
</svg>
