<svg width="2214" height="1204" viewBox="0 0 2214 1204" fill="none" xmlns="http://www.w3.org/2000/svg">
<g clip-path="url(#clip0_2605_14883)">
<path d="M1881 711.668L1824.05 678.81L1879.48 646.829L1879.99 646.541V580.826L1881 580.251L1879.99 579.662V513.947L1824.07 481.692L1879.52 449.696L1880.03 449.409V381.434L1821.65 415.141L1821.14 415.442V480.008V546.887L1768.01 577.54C1767.52 577.034 1766.89 576.674 1766.2 576.5V448.3L1709.26 415.442V349.727L1655.01 318.457C1655.1 318.118 1655.15 317.768 1655.16 317.417C1655.15 317.065 1655.1 316.716 1655.01 316.376L1708.65 285.435L1709.15 285.148V220.665L1764.02 252.331V384.912L1819.17 353.108C1819.6 353.544 1820.12 353.875 1820.7 354.075C1821.28 354.275 1821.9 354.339 1822.5 354.262C1823.11 354.185 1823.69 353.969 1824.2 353.631C1824.71 353.292 1825.13 352.841 1825.44 352.312C1825.75 351.782 1825.93 351.19 1825.97 350.58C1826.01 349.969 1825.9 349.358 1825.67 348.794C1825.43 348.23 1825.07 347.728 1824.61 347.327C1824.15 346.926 1823.6 346.637 1823.01 346.482V219.542L1879.53 186.931L1880.04 186.643V118.573L1823.01 151.431L1765.04 184.863L1707.08 151.431V218.337L1650.68 250.866L1650.17 251.167V313.638C1649.32 313.855 1648.57 314.349 1648.03 315.04C1647.5 315.732 1647.21 316.582 1647.21 317.458C1647.21 318.333 1647.5 319.184 1648.03 319.876C1648.57 320.567 1649.32 321.06 1650.17 321.278V383.762L1707.13 416.62V481.158L1652.2 512.865V448.286L1595.25 415.428V414.292L1594.23 414.881L1593.22 414.292V415.456L1536.77 448.026L1536.27 448.314V516.37L1591.48 484.525C1591.85 484.898 1592.29 485.194 1592.77 485.396C1593.26 485.597 1593.78 485.701 1594.3 485.701C1594.83 485.701 1595.35 485.597 1595.83 485.396C1596.31 485.194 1596.75 484.898 1597.12 484.525L1650.24 515.165V647.773L1708.21 614.327L1764.11 646.596L1820.05 678.865L1765.12 710.559L1764.11 710.011V711.175L1763.09 711.764L1764.11 712.339V778.054L1821.06 810.912V872.219C1820.34 872.408 1819.7 872.794 1819.19 873.332C1818.68 873.87 1818.34 874.54 1818.19 875.264C1818.05 875.989 1818.11 876.74 1818.37 877.432C1818.63 878.124 1819.07 878.73 1819.66 879.181C1820.25 879.631 1820.95 879.908 1821.68 879.981C1822.42 880.054 1823.16 879.919 1823.83 879.592C1824.49 879.264 1825.05 878.758 1825.44 878.13C1825.83 877.502 1826.03 876.778 1826.03 876.038C1826.03 875.686 1825.98 875.336 1825.88 874.998L1879.52 844.057L1880.03 843.769V775.727L1823.02 808.584V745.169L1881 711.668ZM1823.09 416.537L1878.01 384.843V448.218L1823.1 480.008L1823.09 416.537ZM1877.89 645.364L1823.02 677.154V613.738L1877.94 582.058L1877.89 645.364ZM1877.89 578.485L1823.02 546.859V483.485L1877.94 515.179L1877.89 578.485ZM1821.95 548.543L1876.88 580.237L1851.93 594.626L1821.95 611.917L1768.9 581.319C1769.12 580.647 1769.12 579.923 1768.9 579.251L1821.95 548.543ZM1764.11 515.179V576.472C1763.42 576.652 1762.8 577.012 1762.3 577.513L1736.64 562.713L1709.24 546.873V483.499L1736.64 499.339L1764.11 515.179ZM1766.08 252.318L1821.01 220.624V283.998L1766.05 315.719L1766.08 252.318ZM1766.08 381.407V318.047L1821.01 286.353V346.482C1820.16 346.706 1819.41 347.203 1818.87 347.896C1818.34 348.589 1818.05 349.44 1818.05 350.316C1818.05 350.663 1818.1 351.008 1818.2 351.342L1766.08 381.407ZM1823.13 153.772L1878.05 122.078V185.452L1823.1 217.146L1823.13 153.772ZM1821.01 218.296L1766.05 250.004V186.616L1820.98 154.936L1821.01 218.296ZM1709.1 154.936L1764.02 186.616V250.004L1709.15 218.351V217.146L1709.1 154.936ZM1707.13 220.651V284.025L1654.01 314.679C1653.51 314.183 1652.88 313.828 1652.2 313.652V252.331L1707.13 220.651ZM1652.2 382.612V321.278C1652.88 321.104 1653.5 320.755 1654 320.264L1707.13 350.904V414.292L1652.2 382.612ZM1764.11 449.477V512.865L1736.64 497.025L1709.24 481.185V417.783L1764.11 449.477ZM1538.29 512.865V449.464L1593.22 417.77V477.913C1592.37 478.136 1591.63 478.631 1591.09 479.321C1590.56 480.012 1590.26 480.859 1590.26 481.733C1590.27 482.084 1590.32 482.434 1590.41 482.773L1538.29 512.865ZM1595.25 477.94V417.77L1650.17 449.464V512.865L1598.11 482.746C1598.21 482.408 1598.26 482.057 1598.26 481.705C1598.25 480.829 1597.94 479.983 1597.4 479.297C1596.85 478.611 1596.1 478.124 1595.25 477.913V477.94ZM1652.2 515.206L1707.13 483.526V546.887L1652.2 578.581V515.206ZM1652.2 580.922L1707.13 549.228V612.602L1652.2 644.296V580.922ZM1709.15 612.602V549.2L1736.55 565.04L1761.22 579.265C1761.12 579.603 1761.07 579.953 1761.07 580.306C1761.07 581.179 1761.36 582.026 1761.9 582.717C1762.43 583.407 1763.18 583.902 1764.02 584.125V644.296L1709.15 612.602ZM1766.09 584.153C1766.78 583.983 1767.4 583.628 1767.9 583.126L1821.03 613.766V677.154L1766.09 645.473V584.153ZM1821.03 680.645L1822.03 680.07L1823.05 680.645L1876.96 711.764L1822.03 743.444L1767.11 711.764L1821.03 680.645ZM1766.09 713.502L1821.03 745.196V808.584L1766.09 776.904V713.502ZM1877.97 779.218V842.592L1824.86 873.246C1824.36 872.746 1823.73 872.391 1823.05 872.219V810.884L1877.97 779.218ZM1541.25 383.16C1541.25 382.812 1541.2 382.466 1541.1 382.133L1594.74 351.192L1595.25 350.891V219.542L1648.05 189.08C1648.41 189.596 1648.89 190.018 1649.45 190.308C1650.02 190.599 1650.64 190.751 1651.27 190.75C1652.24 190.759 1653.17 190.413 1653.9 189.778C1654.63 189.143 1655.1 188.263 1655.23 187.304C1655.35 186.345 1655.12 185.374 1654.58 184.574C1654.04 183.774 1653.22 183.2 1652.28 182.96V118.573L1595.33 151.431V86.8928L1536.36 52.8577V120.928L1592.25 153.156L1537.28 184.863L1484.15 154.169C1484.25 153.831 1484.3 153.48 1484.3 153.128C1484.3 152.385 1484.1 151.656 1483.71 151.023C1483.32 150.39 1482.76 149.879 1482.09 149.549C1481.43 149.219 1480.68 149.082 1479.94 149.154C1479.2 149.226 1478.5 149.505 1477.91 149.958C1477.32 150.411 1476.87 151.02 1476.6 151.716C1476.34 152.412 1476.28 153.168 1476.43 153.896C1476.58 154.624 1476.93 155.297 1477.44 155.836C1477.95 156.376 1478.61 156.761 1479.33 156.948V217.146V284.039L1423.39 316.308L1368.46 284.614L1423.89 252.632L1424.39 252.345V186.63L1425.4 186.041L1424.39 185.466V120.9L1480.83 88.344L1481.34 88.0428V20L1422.88 53.7339L1422.37 54.0214V118.573L1367.45 86.8791V85.7154L1366.43 86.2904L1308.47 52.8577V116.492C1307.78 116.665 1307.16 117.019 1306.66 117.519L1253.54 86.8791V20L1196.59 52.8577L1138.13 86.5916L1137.62 86.8791V151.431L1082.69 119.737V118.573L1081.68 119.148L1080.67 118.573V119.737L1024.73 152.006L966.733 118.573V185.438L911.835 217.146V152.581L852.868 118.573L795.914 85.7154V152.594L742.797 183.234C742.243 182.675 741.535 182.293 740.763 182.136C739.992 181.98 739.191 182.056 738.462 182.355C737.734 182.654 737.111 183.163 736.672 183.817C736.234 184.471 736 185.24 736 186.027C736 186.814 736.234 187.583 736.672 188.237C737.111 188.891 737.734 189.4 738.462 189.699C739.191 189.998 739.992 190.075 740.763 189.918C741.535 189.762 742.243 189.379 742.797 188.82L795.914 219.474V286.353L854.388 252.619L854.895 252.331V187.78L909.821 219.474V286.339L964.966 254.535C965.467 255.032 966.091 255.386 966.774 255.562V318.033L1025.76 352.054V286.339L1082.71 319.197V251.154L1026.77 218.885L1081.68 187.205L1139.65 220.637V153.758L1194.57 122.078V251.167L1138.13 283.738L1137.62 284.025V352.082L1192.79 320.264C1193.22 320.702 1193.75 321.034 1194.33 321.235C1194.9 321.436 1195.52 321.5 1196.13 321.423C1196.74 321.346 1197.32 321.129 1197.83 320.79C1198.34 320.45 1198.77 319.998 1199.07 319.467C1199.38 318.936 1199.56 318.342 1199.59 317.731C1199.63 317.12 1199.53 316.508 1199.29 315.943C1199.05 315.379 1198.69 314.877 1198.22 314.477C1197.76 314.077 1197.21 313.79 1196.61 313.638V252.331L1253.08 219.761L1253.58 219.474V154.922L1308.51 186.616V247.923C1307.66 248.146 1306.91 248.641 1306.38 249.331C1305.84 250.022 1305.55 250.869 1305.55 251.742C1305.56 252.094 1305.61 252.444 1305.7 252.783L1252.06 283.724L1251.55 284.011V352.068L1309.52 318.622L1366.47 351.479L1423.43 318.622L1480.37 351.479L1536.31 319.21V379.34C1535.59 379.531 1534.95 379.919 1534.44 380.458C1533.94 380.997 1533.59 381.667 1533.45 382.391C1533.31 383.116 1533.37 383.866 1533.63 384.557C1533.89 385.248 1534.34 385.852 1534.93 386.301C1535.51 386.75 1536.21 387.027 1536.95 387.099C1537.68 387.171 1538.42 387.036 1539.09 386.709C1539.75 386.382 1540.31 385.876 1540.7 385.249C1541.09 384.622 1541.29 383.898 1541.29 383.16H1541.25ZM1593.22 349.727L1540.1 380.367C1539.6 379.872 1538.98 379.518 1538.29 379.34V318.047L1539.31 317.458L1593.22 286.353V349.727ZM1481.34 220.637L1536.27 252.331V315.719L1481.34 284.025V220.637ZM1538.29 252.331L1593.22 220.637V284.011L1538.29 315.719V252.331ZM1593.22 218.31L1538.29 250.004V186.616L1593.22 154.936V218.31ZM1650.27 122.092V182.919C1649.42 183.137 1648.67 183.631 1648.13 184.322C1647.59 185.013 1647.3 185.863 1647.3 186.739C1647.29 186.862 1647.29 186.986 1647.3 187.109L1595.23 217.119V153.786L1650.27 122.092ZM1538.39 56.3762L1593.32 88.0702V151.431L1538.39 119.75V56.3762ZM1481.34 157.003C1482.03 156.833 1482.65 156.478 1483.15 155.976L1536.27 186.616V250.004L1481.34 218.323V157.003ZM1366.43 217.721L1311.51 186.027L1336.46 171.638L1366.43 154.347L1421.36 186.027L1396.41 200.43L1366.43 217.721ZM1310.49 124.145C1311.18 123.963 1311.8 123.61 1312.3 123.118L1364.36 153.238L1310.49 184.288V124.145ZM1365.42 151.431L1313.36 121.311C1313.56 120.637 1313.56 119.918 1313.36 119.244L1365.42 89.1243V151.431ZM1365.42 219.487V282.861L1313.36 252.742C1313.45 252.403 1313.5 252.053 1313.51 251.701C1313.5 250.828 1313.21 249.981 1312.68 249.29C1312.14 248.6 1311.39 248.105 1310.55 247.882V187.78L1365.42 219.487ZM1310.49 255.59C1311.18 255.404 1311.8 255.046 1312.3 254.549L1364.36 284.669L1310.49 315.719V255.59ZM1422.37 251.167L1367.45 282.861V219.474L1422.37 187.78V251.167ZM1424.33 55.1851L1479.27 23.5048V86.8791L1424.33 118.573V55.1851ZM1422.32 120.9V184.288L1367.45 152.594V89.2202L1422.32 120.9ZM1364.41 87.4678L1312.34 117.587C1311.84 117.088 1311.22 116.733 1310.54 116.561V56.3488L1364.41 87.4678ZM1251.51 23.5185V86.8791L1196.59 118.573V55.2125L1251.51 23.5185ZM1080.67 122.092V185.452L1025.74 217.146V153.758L1080.67 122.092ZM968.788 122.092L1023.71 153.758V217.146L996.313 201.306L968.911 185.452L968.788 122.092ZM1023.71 282.861L996.313 267.021L971.652 252.797C971.744 252.462 971.794 252.117 971.802 251.77C971.801 250.894 971.51 250.044 970.975 249.35C970.44 248.657 969.69 248.16 968.843 247.936V187.78L996.244 203.62L1023.65 219.474L1023.71 282.861ZM909.807 217.146L854.881 185.452V122.064L909.807 153.758V217.146ZM797.942 89.2065L852.868 120.9V184.288L797.942 152.594V89.2065ZM743.797 185.041L796.928 154.402L851.854 186.082L826.891 200.485L796.928 217.776L743.797 187.027C743.89 186.687 743.941 186.338 743.948 185.986C743.936 185.648 743.885 185.313 743.797 184.987V185.041ZM852.868 251.209L797.942 282.861V219.474L852.868 187.78V251.209ZM911.78 282.889V219.474L966.733 187.78V247.909C965.886 248.133 965.136 248.63 964.601 249.323C964.066 250.016 963.775 250.867 963.774 251.742C963.782 252.09 963.832 252.435 963.924 252.769L911.78 282.889ZM1023.66 348.604L968.788 316.869V255.562C969.473 255.39 970.098 255.035 970.597 254.535L996.244 269.335L1023.65 285.175L1023.66 348.604ZM1080.61 315.747L1025.69 284.066V220.637L1080.61 252.318V315.747ZM1137.57 217.173L1082.64 185.493V122.078L1137.62 153.758L1137.57 217.173ZM1139.58 151.458V88.0565L1194.51 56.3625V119.737L1139.58 151.458ZM1251.46 89.2613V152.594L1196.59 184.288V120.914L1251.46 89.2613ZM1139.63 348.577V285.189L1194.56 253.509V313.638C1193.71 313.862 1192.96 314.359 1192.43 315.052C1191.89 315.745 1191.6 316.596 1191.6 317.472C1191.61 317.82 1191.66 318.166 1191.76 318.498L1139.63 348.577ZM1251.51 218.31L1196.59 250.004V186.616L1251.51 154.922V218.31ZM1253.54 89.2202L1305.6 119.34C1305.51 119.675 1305.46 120.019 1305.45 120.367C1305.45 121.242 1305.74 122.093 1306.28 122.786C1306.81 123.479 1307.56 123.976 1308.41 124.2V184.288L1253.54 152.594V89.2202ZM1253.54 285.189L1306.66 254.535C1307.16 255.036 1307.78 255.395 1308.47 255.576V316.869L1253.54 348.577V285.189ZM1366.43 349.152L1311.51 317.458L1365.42 286.353L1366.43 285.778L1367.45 286.353L1421.36 317.458L1366.43 349.152ZM1425.35 317.458L1480.27 285.764L1535.31 317.458L1480.37 349.152L1425.35 317.458Z" fill="#F8F8F8"/>
<path d="M656 819.668L599.047 786.81L654.479 754.829L654.986 754.541V688.826L656 688.251L654.986 687.662V621.947L599.074 589.691L654.52 557.696L655.027 557.409V489.435L596.649 523.141L596.142 523.442V588.008V654.887L543.011 685.54C542.516 685.034 541.89 684.674 541.203 684.5V556.3L484.263 523.442V457.727L430.009 426.457C430.101 426.118 430.152 425.768 430.16 425.417C430.151 425.065 430.1 424.716 430.009 424.376L483.647 393.435L484.154 393.148V328.665L539.024 360.331V492.912L594.169 461.108C594.599 461.544 595.123 461.875 595.701 462.075C596.279 462.275 596.895 462.339 597.502 462.262C598.109 462.185 598.69 461.969 599.2 461.63C599.709 461.292 600.134 460.841 600.44 460.312C600.747 459.782 600.927 459.19 600.966 458.58C601.006 457.969 600.903 457.358 600.668 456.794C600.432 456.23 600.069 455.728 599.608 455.327C599.146 454.926 598.598 454.637 598.006 454.482V327.542L654.534 294.931L655.041 294.643V226.573L598.006 259.431L540.039 292.863L482.085 259.431V326.337L425.68 358.866L425.173 359.167V421.638C424.324 421.855 423.572 422.349 423.034 423.04C422.497 423.732 422.206 424.582 422.206 425.458C422.206 426.333 422.497 427.184 423.034 427.876C423.572 428.567 424.324 429.06 425.173 429.278V491.762L482.126 524.62V589.158L427.2 620.865V556.286L370.247 523.428V522.292L369.233 522.881L368.219 522.292V523.456L311.773 556.026L311.266 556.314V624.37L366.479 592.525C366.849 592.898 367.288 593.194 367.773 593.396C368.257 593.597 368.777 593.701 369.302 593.701C369.827 593.701 370.346 593.597 370.831 593.396C371.315 593.194 371.755 592.898 372.124 592.525L425.241 623.165V755.773L483.208 722.327L539.107 754.596L595.046 786.865L540.121 818.559L539.107 818.011V819.175L538.093 819.764L539.107 820.339V886.054L596.06 918.912V980.219C595.345 980.408 594.697 980.794 594.19 981.332C593.683 981.87 593.338 982.54 593.192 983.264C593.046 983.989 593.107 984.74 593.366 985.432C593.626 986.124 594.075 986.73 594.661 987.181C595.248 987.631 595.949 987.908 596.685 987.981C597.421 988.054 598.163 987.919 598.826 987.592C599.489 987.264 600.048 986.758 600.438 986.13C600.828 985.502 601.034 984.778 601.033 984.038C601.031 983.686 600.981 983.336 600.883 982.998L654.52 952.057L655.027 951.769V883.727L598.019 916.584V853.169L656 819.668ZM598.088 524.537L653.013 492.843V556.218L598.102 588.008L598.088 524.537ZM652.89 753.364L598.019 785.154V721.738L652.945 690.058L652.89 753.364ZM652.89 686.485L598.019 654.859V591.485L652.945 623.179L652.89 686.485ZM596.951 656.543L651.876 688.237L626.927 702.626L596.951 719.917L543.902 689.319C544.121 688.647 544.121 687.923 543.902 687.251L596.951 656.543ZM539.107 623.179V684.472C538.422 684.652 537.798 685.012 537.298 685.513L511.637 670.713L484.236 654.873V591.499L511.637 607.339L539.107 623.179ZM541.08 360.318L596.005 328.624V391.998L541.052 423.719L541.08 360.318ZM541.08 489.407V426.047L596.005 394.353V454.482C595.158 454.706 594.409 455.203 593.873 455.896C593.338 456.589 593.047 457.44 593.046 458.316C593.054 458.663 593.104 459.008 593.197 459.342L541.08 489.407ZM598.129 261.772L653.055 230.078V293.452L598.102 325.146L598.129 261.772ZM596.005 326.296L541.052 358.004V294.616L595.978 262.936L596.005 326.296ZM484.099 262.936L539.024 294.616V358.004L484.154 326.351V325.146L484.099 262.936ZM482.126 328.651V392.025L429.009 422.679C428.508 422.183 427.883 421.828 427.2 421.652V360.331L482.126 328.651ZM427.2 490.612V429.278C427.878 429.104 428.497 428.755 428.995 428.264L482.126 458.904V522.292L427.2 490.612ZM539.107 557.477V620.865L511.637 605.025L484.236 589.185V525.783L539.107 557.477ZM313.294 620.865V557.464L368.219 525.77V585.913C367.374 586.136 366.626 586.631 366.091 587.321C365.556 588.012 365.264 588.859 365.26 589.733C365.268 590.084 365.318 590.434 365.411 590.773L313.294 620.865ZM370.247 585.94V525.77L425.173 557.464V620.865L373.111 590.746C373.209 590.408 373.26 590.057 373.261 589.705C373.248 588.829 372.945 587.983 372.4 587.297C371.855 586.611 371.098 586.124 370.247 585.913V585.94ZM427.2 623.206L482.126 591.526V654.887L427.2 686.581V623.206ZM427.2 688.922L482.126 657.228V720.602L427.2 752.296V688.922ZM484.154 720.602V657.2L511.555 673.04L536.216 687.265C536.116 687.603 536.065 687.953 536.065 688.306C536.069 689.179 536.362 690.026 536.897 690.717C537.432 691.408 538.179 691.902 539.024 692.125V752.296L484.154 720.602ZM541.093 692.153C541.779 691.983 542.405 691.628 542.902 691.126L596.033 721.766V785.154L541.093 753.473V692.153ZM596.033 788.645L597.033 788.07L598.047 788.645L651.958 819.764L597.033 851.444L542.107 819.764L596.033 788.645ZM541.093 821.502L596.033 853.196V916.584L541.093 884.904V821.502ZM652.972 887.218V950.592L599.855 981.245C599.356 980.746 598.731 980.391 598.047 980.219V918.884L652.972 887.218ZM368.219 457.727L315.102 488.367C314.6 487.872 313.976 487.518 313.294 487.34V426.047L314.308 425.458L368.219 394.353V457.727ZM256.34 328.637L311.266 360.331V423.719L256.34 392.025V328.637ZM313.294 360.331L368.219 328.637V392.011L313.294 423.719V360.331ZM368.219 326.31L313.294 358.004V294.616L368.219 262.936V326.31ZM425.269 230.092V290.919C424.42 291.138 423.668 291.631 423.13 292.322C422.592 293.013 422.298 293.863 422.296 294.739C422.288 294.862 422.288 294.986 422.296 295.109L370.233 325.119V261.786L425.269 230.092ZM313.39 164.376L368.315 196.07V259.431L313.39 227.75V164.376ZM256.34 265.003C257.026 264.833 257.652 264.478 258.149 263.976L311.266 294.616V358.004L256.34 326.323V265.003Z" fill="#F8F8F8"/>
<g opacity="0.59" filter="url(#filter0_f_2605_14883)">
<circle cx="1823.5" cy="91.5" r="133.5" fill="url(#paint0_linear_2605_14883)"/>
</g>
<g opacity="0.59" filter="url(#filter1_f_2605_14883)">
<circle cx="332.5" cy="749.5" r="133.5" fill="url(#paint1_linear_2605_14883)"/>
</g>
<g filter="url(#filter2_f_2605_14883)">
<circle cx="1860.5" cy="253.5" r="212.5" fill="#FAA945" fill-opacity="0.25"/>
</g>
<g filter="url(#filter3_f_2605_14883)">
<circle cx="1610.5" cy="253.5" r="212.5" fill="#FAA945" fill-opacity="0.25"/>
</g>
<circle cx="1746" cy="128" r="12" stroke="url(#paint2_linear_2605_14883)" stroke-width="6"/>
<circle cx="1857.5" cy="766.5" r="65.5" stroke="url(#paint3_linear_2605_14883)" stroke-width="8"/>
<circle cx="410.5" cy="776.5" r="23.5" stroke="url(#paint4_linear_2605_14883)" stroke-width="6"/>
<path fill-rule="evenodd" clip-rule="evenodd" d="M568.627 330L572.567 326.06C573.292 325.335 573.292 324.159 572.567 323.434C571.841 322.708 570.665 322.708 569.94 323.434L566.001 327.373L562.061 323.434C561.336 322.708 560.16 322.708 559.435 323.434C558.709 324.159 558.709 325.335 559.435 326.06L563.374 330L559.435 333.939C558.709 334.664 558.709 335.84 559.435 336.566C560.16 337.291 561.336 337.291 562.061 336.566L566.001 332.626L569.94 336.566C570.665 337.291 571.841 337.291 572.567 336.566C573.292 335.84 573.292 334.664 572.567 333.939L568.627 330Z" fill="url(#paint5_linear_2605_14883)"/>
</g>
<defs>
<filter id="filter0_f_2605_14883" x="1390" y="-342" width="867" height="867" filterUnits="userSpaceOnUse" color-interpolation-filters="sRGB">
<feFlood flood-opacity="0" result="BackgroundImageFix"/>
<feBlend mode="normal" in="SourceGraphic" in2="BackgroundImageFix" result="shape"/>
<feGaussianBlur stdDeviation="150" result="effect1_foregroundBlur_2605_14883"/>
</filter>
<filter id="filter1_f_2605_14883" x="-101" y="316" width="867" height="867" filterUnits="userSpaceOnUse" color-interpolation-filters="sRGB">
<feFlood flood-opacity="0" result="BackgroundImageFix"/>
<feBlend mode="normal" in="SourceGraphic" in2="BackgroundImageFix" result="shape"/>
<feGaussianBlur stdDeviation="150" result="effect1_foregroundBlur_2605_14883"/>
</filter>
<filter id="filter2_f_2605_14883" x="648" y="-959" width="2425" height="2425" filterUnits="userSpaceOnUse" color-interpolation-filters="sRGB">
<feFlood flood-opacity="0" result="BackgroundImageFix"/>
<feBlend mode="normal" in="SourceGraphic" in2="BackgroundImageFix" result="shape"/>
<feGaussianBlur stdDeviation="500" result="effect1_foregroundBlur_2605_14883"/>
</filter>
<filter id="filter3_f_2605_14883" x="398" y="-959" width="2425" height="2425" filterUnits="userSpaceOnUse" color-interpolation-filters="sRGB">
<feFlood flood-opacity="0" result="BackgroundImageFix"/>
<feBlend mode="normal" in="SourceGraphic" in2="BackgroundImageFix" result="shape"/>
<feGaussianBlur stdDeviation="500" result="effect1_foregroundBlur_2605_14883"/>
</filter>
<linearGradient id="paint0_linear_2605_14883" x1="1692.04" y1="91.5" x2="1959.04" y2="91.5" gradientUnits="userSpaceOnUse">
<stop stop-color="#00A8FF"/>
<stop offset="1" stop-color="#62C9FF"/>
</linearGradient>
<linearGradient id="paint1_linear_2605_14883" x1="201.035" y1="749.5" x2="468.035" y2="749.5" gradientUnits="userSpaceOnUse">
<stop stop-color="#00A8FF"/>
<stop offset="1" stop-color="#62C9FF"/>
</linearGradient>
<linearGradient id="paint2_linear_2605_14883" x1="1731.23" y1="128" x2="1761.23" y2="128" gradientUnits="userSpaceOnUse">
<stop stop-color="#00A8FF"/>
<stop offset="1" stop-color="#62C9FF"/>
</linearGradient>
<linearGradient id="paint3_linear_2605_14883" x1="1789.06" y1="766.5" x2="1928.06" y2="766.5" gradientUnits="userSpaceOnUse">
<stop stop-color="#00A8FF"/>
<stop offset="1" stop-color="#62C9FF"/>
</linearGradient>
<linearGradient id="paint4_linear_2605_14883" x1="384.404" y1="776.5" x2="437.404" y2="776.5" gradientUnits="userSpaceOnUse">
<stop stop-color="#00A8FF"/>
<stop offset="1" stop-color="#62C9FF"/>
</linearGradient>
<linearGradient id="paint5_linear_2605_14883" x1="558.999" y1="330" x2="573.219" y2="330" gradientUnits="userSpaceOnUse">
<stop stop-color="#00A8FF"/>
<stop offset="1" stop-color="#62C9FF"/>
</linearGradient>
<clipPath id="clip0_2605_14883">
<rect width="2214" height="1204" fill="white"/>
</clipPath>
</defs>
</svg>
