<svg width="26" height="26" viewBox="0 0 26 26" fill="none" xmlns="http://www.w3.org/2000/svg">
<path d="M12.9647 23.4909C12.3323 23.4907 11.7071 23.3583 11.1289 23.1021C9.47435 22.3654 7.06878 21.0487 5.0092 18.9524C3.83694 17.7619 2.91297 16.4512 2.26172 15.0531C1.49243 13.4066 1.0915 11.6218 1.07115 9.74941C1.05581 8.73113 1.25193 7.72074 1.6471 6.78214C2.02612 5.88768 2.58677 5.0817 3.29355 4.41524C3.98732 3.76267 4.80835 3.26035 5.70522 2.93974C6.63936 2.60597 7.62846 2.47369 8.64604 2.54695C10.2594 2.66333 11.7839 3.33003 12.9647 4.43559C14.1454 3.33003 15.6699 2.66333 17.2833 2.54695C18.3009 2.47369 19.29 2.60597 20.2241 2.93974C21.1297 3.26395 21.9579 3.77297 22.6562 4.43446C23.3544 5.09594 23.9075 5.89543 24.2802 6.78214C24.677 7.72031 24.8738 8.7309 24.8582 9.74941C24.8378 11.6218 24.4369 13.4066 23.6676 15.0531C23.0163 16.4512 22.0924 17.7619 20.9201 18.9524C18.8605 21.0487 16.455 22.3654 14.8004 23.1021C14.2223 23.3583 13.597 23.4907 12.9647 23.4909Z" fill="url(#paint0_linear_2428_66254)"/>
<path d="M19.4893 7.86528C20.493 7.86528 21.3067 7.0516 21.3067 6.04787C21.3067 5.04415 20.493 4.23047 19.4893 4.23047C18.4856 4.23047 17.6719 5.04415 17.6719 6.04787C17.6719 7.0516 18.4856 7.86528 19.4893 7.86528Z" fill="white"/>
<defs>
<linearGradient id="paint0_linear_2428_66254" x1="1.25163" y1="13.0091" x2="25.0404" y2="13.0091" gradientUnits="userSpaceOnUse">
<stop stop-color="#FBB34C"/>
<stop offset="1" stop-color="#F56B18"/>
</linearGradient>
</defs>
</svg>
